<?xml version="1.0" encoding="utf-8"?><svg viewBox="0 0 93 59" xmlns="http://www.w3.org/2000/svg" xmlns:xlink="http://www.w3.org/1999/xlink"><style>:root>svg{display:none}:root>svg:target{display:block}</style><svg fill="none" viewBox="0 0 80 27" id="Coca" xmlns="http://www.w3.org/2000/svg"><path d="M30.72 22.851c-2.976-1.918-7.016-2.254-13.531-.447-6.946 1.633-9.262 2.679-12.303.579-1.168-1.032-1.587-2.694-1.274-5.087.725-3.9 2.686-7.655 6.168-11.819 1.944-2.166 3.747-4.025 6.128-4.772 1.825-.468 1.654.966 1.434 1.171-.233 0-.625.037-.927.234-.246.19-.92.806-.956 1.633-.052 1.266 1.258 1.002 1.823.307.61-.783 1.51-2.283.801-3.681-.296-.498-.81-.842-1.446-.959-2.18-.124-4.21.915-6.085 2.064-4.098 2.847-7.376 6.792-9.231 11.11C.25 15.789-.716 19.52.734 22.558c1.122 2.108 3.45 3.227 6.228 2.993 1.948-.204 4.304-.834 5.889-1.214 1.584-.381 9.695-3.17 12.36 1.683 0 0 .886-1.72 3.1-1.757 1.822-.168 4.448.527 6.361 1.932-.637-.958-2.444-2.37-3.951-3.344z" fill="#E61A27"/><path d="M18.016 6.567c-1.517-.995-4.566.908-7.008 4.172-2.233 2.928-3.198 6.33-2.148 7.904 1.56 1.851 4.459-.842 5.691-2.283l.16-.169c.837-.9 1.485-1.983 2.112-3.023l.603-.995c.356-.066.785-.168 1.268-.307-.007.022-1.849 3.117-1.66 4.654.058.469.013 2.181 1.685 2.7 2.229.374 4.008-1.353 5.578-2.89l.418-.402-.088.358c-.652 2.268.227 2.745.777 2.92 1.663.484 3.649-1.932 3.655-1.932-.051.761-.202 1.39.6 1.895.757.271 1.523-.142 2.106-.53 2.097-1.478 3.787-3.792 5.152-5.791h-.87c-.011 0-2.149 3.098-3.537 3.772-.002 0-.255.13-.4.027-.18-.154-.11-.473.002-.7.006-.015 5.36-9.3 5.36-9.3h-2.528s-.276.447-.298.476c-.017-.014-.058-.091-.086-.128-1.566-2.166-5.112 1.166-7.782 5.03-1.028 1.486-2.337 3.159-3.694 4.366 0 0-2.01 1.843-2.869.52-.314-.557-.217-1.37-.04-1.905 1-2.847 2.723-5.43 4.684-6.99.554-.43 1.156-.556 1.454-.373.285.17.33.586.15.871-.456-.014-.822.125-1.12.432-.585.615-.79 1.208-.603 1.764.905 1.288 2.71-1.259 2.623-2.81-.031-.557-.328-1.084-.77-1.34-.66-.395-1.668-.293-2.32.022-.872.33-2.253 1.478-3.06 2.371-1.014 1.12-2.754 2.364-3.299 2.225.178-.476 1.648-3.484.102-4.61zm12.186 4.45c.492-.68 1.923-2.503 2.272-2.81 1.173-1.032 1.642-.578 1.683-.256a231.413 231.413 0 01-3.603 6.228c.002-.007-.38.578-.38.578-.537.82-1.078 1.522-1.959 2.012-.126.037-.333.052-.47-.051a.499.499 0 01-.214-.483c.053-.63.694-2.554 2.671-5.218zm-13.75 1.178s-.023.066-.033.088c-.003 0-1.103 1.793-1.103 1.793-.663.885-1.491 1.998-2.527 2.532-.306.103-.73.169-.947-.102-.458-.549-.222-1.31-.03-1.925l.068-.22c.55-1.492 1.423-2.81 2.273-4.032a.112.112 0 01.043-.014c.002.007.005.007.007.022.533 1.024 1.533 1.5 2.28 1.72.005 0 .01.007.01.021a.36.36 0 01-.041.117zm1.04-2.114c-.004.014-.489 1.127-.489 1.127-.07.058-.18.029-.308 0l-.217-.037c-.684-.212-1.199-.666-1.358-1.208-.219-1.054.681-1.88 1.078-2.18.38-.264.972-.403 1.316-.132.212.249.292.57.292.922 0 .475-.147 1.01-.313 1.508zm31.955 3.395c-.244-.527-.822-.864-1.439-.827-2.002.183-3.96 1.83-4.99 4.193-.539 1.215-.833 2.218-1.026 3.813.622-.717 1.892-1.895 3.334-2.539 0 0 .196-1.53 1.196-2.89.378-.565 1.135-1.472 1.986-1.23.742.248.481 2.305-.506 4.295-.73 1.464-1.849 2.928-2.98 3.938-1 .849-2.48 1.873-3.774 1.083-.816-.483-1.232-1.493-1.144-2.796.39-3.695 2.072-6.842 4.48-10.428 2.482-3.33 5.218-6.748 8.905-8.57.752-.381 1.448-.469 2.05-.235 0 0-3.46 1.903-5.11 5.423-.42.893-1.003 2.1-.416 3.17.308.555.853.6 1.292.57 2.022-.468 3.328-2.357 4.395-4.084.62-1.31 1.17-2.612 1.17-4.061 0-.176-.01-.41-.025-.586.966-.512 2.947.395 2.947.395 1.548.513 4.844 3.038 5.956 3.52.542-.629 1.433-1.58 1.935-2.056l-.726-.446c-1.163-.71-2.393-1.384-3.603-2.05-2.748-1.5-4.984-.973-6.123-.563-.447.161-.856.3-.856.3-.845-.922-2.23-.834-3.251-.585-3.672 1.053-7.08 3.622-10.735 8.08-2.687 3.49-4.353 6.506-5.241 9.484-.685 2.005-.893 4.955.778 6.704 1.42 1.485 3.305 1.163 4.635.63 2.883-1.42 5.474-4.48 6.765-8 .312-1.047.657-2.525.12-3.652zm6.629-11.029c-.382 4.377-3.784 6.946-4.626 7.15-.51.103-1.38-.124-.603-1.96 1.144-2.475 3.098-4.575 5.194-5.65.05.182.05.299.035.46zm20.18.556c-1.83 1.04-3.728 1.713-6.024 1.479a35.275 35.275 0 00-1.827 2.217c3.223.82 6.64-1.003 8.545-2.737C78.966 2.213 80 .01 80 .01s-1.511 1.727-3.745 2.993zM41.672 6.648h-2.4l-1.355 2.2h2.4l1.355-2.2z" fill="#E61A27"/><path d="M70.223 23.055c-.258.175-.621.04-.486-.362.338-1.025 1.68-3.113 1.68-3.113l3.74-6.632h-2.561c-.122.2-.382.659-.382.659-.119-.197-.473-.636-.619-.731-.626-.396-1.544-.209-2.177.15-2.754 1.61-4.763 4.791-6.348 7.273 0 0-1.668 2.758-2.594 2.963-.723.058-.648-.916-.617-1.142.28-1.64.928-3.199 1.582-4.611a35.414 35.414 0 004.228-3.454c2.994-2.862 5.518-6.104 5.886-6.829 0 0-.399.08-.87.095-2.303 3.213-7.017 7.883-8.446 8.578.634-1.523 4.723-8.79 8.203-12.266l.548-.527c.847-.827 1.724-1.676 2.408-1.815.072-.008.165 0 .246.168.03.644-.21 1.12-.485 1.661l-.385.791s.546-.103.905-.22c.415-.783.876-1.661.706-2.707a.777.777 0 00-.619-.652c-1.038-.197-2.17.57-3.08 1.193l-.036.022c-4.68 3.666-8.632 8.95-12.087 16.167-.25.19-1.218.417-1.383.307.342-.703.771-1.647.986-2.671.037-.293.072-.593.072-.886 0-.63-.151-1.222-.716-1.632-.661-.33-1.479-.176-2.03.073-2.47 1.025-4.316 3.557-5.648 5.643-.716 1.325-1.43 2.744-1.629 4.369-.139 1.273.145 2.093.869 2.502.744.38 1.681-.015 2.05-.205 2.501-1.317 4.25-3.959 5.628-6.374.054-.007.807-.029 1.376-.176.008 0 .01 0 .023.008-.032.11-.326.988-.326.988-.874 2.561-1.278 4.303-.453 5.335 1.18 1.456 3.131-.051 4.719-2.042-.341 2.386.895 2.76 1.838 2.576 1.083-.292 2.29-1.449 2.849-2.041-.18.695-.131 1.939.854 2.063.675.125 1.18-.242 1.765-.557 2.097-1.142 4.607-4.947 5.258-6.046h-.854c-.927 1.4-2.106 3.235-3.588 4.107zM51.4 22.8a1.153 1.153 0 01-.182-.647c-.025-1.435 1.519-4.005 2.609-5.405h.002c.457 1 1.49 1.642 2.115 1.913-.775 1.728-3.434 5.427-4.544 4.139zm4.982-4.91c-.074.05-1.378-.389-1.63-1.596-.214-1.04.502-1.852 1.194-2.261.298-.235.746-.315 1.074-.198.305.205.388.571.388.966 0 .242-.032.49-.06.717l-.007.051a9.756 9.756 0 01-.96 2.32zm10.46 4.449c-.002 0-.248.22-.248.22-.352.314-.714.65-1.15.482-.122-.044-.206-.204-.227-.33-.02-.9.385-1.734.779-2.546l.1-.212c1.131-1.888 2.446-4.113 4.376-5.657.325-.235.678-.432 1.05-.278.087.08.186.22.186.358 0 .044-.039.161-.061.198-.54.871-1.053 1.786-1.552 2.664-.976 1.734-1.988 3.527-3.254 5.1z" fill="#E61A27"/></svg><svg fill="none" viewBox="0 0 20 32" id="arrow-next" xmlns="http://www.w3.org/2000/svg"><path d="M18.964 14.985L2.951.392a1.35 1.35 0 00-1.903 0 1.335 1.335 0 000 1.894L16.095 16 1.05 29.714a1.335 1.335 0 000 1.894 1.35 1.35 0 001.903 0l16.013-14.593c.28-.279.4-.648.382-1.014a1.33 1.33 0 00-.383-1.016z" fill="#505050"/></svg><svg fill="none" viewBox="0 0 20 32" id="arrow-prev" xmlns="http://www.w3.org/2000/svg"><path d="M1.038 17.015l16.014 14.593a1.35 1.35 0 001.903 0 1.335 1.335 0 000-1.894L3.907 16 18.953 2.286a1.335 1.335 0 000-1.894 1.35 1.35 0 00-1.903 0L1.037 14.985c-.28.279-.4.648-.382 1.014a1.33 1.33 0 00.383 1.016z" fill="#505050"/></svg><svg fill="none" viewBox="0 0 24 24" id="bag_close" xmlns="http://www.w3.org/2000/svg"><g clip-path="url(#adclip0_639_422)"><path d="M13.407 12.007L23.695 1.719A1 1 0 1022.28.306L11.994 10.593 1.705.305A1 1 0 00.292 1.72L10.58 12.007.292 22.294a1 1 0 001.414 1.414L11.993 13.42l10.288 10.288a1 1 0 001.414-1.414L13.407 12.007z" fill="#31352B"/></g><defs><clipPath id="adclip0_639_422"><path fill="#fff" d="M0 0h24v24H0z"/></clipPath></defs></svg><svg fill="none" viewBox="0 0 16 16" id="basket" xmlns="http://www.w3.org/2000/svg"><path d="M15.899 2.02a.462.462 0 00-.36-.174H3.255L2.91.358A.462.462 0 002.461 0h-2a.462.462 0 000 .923h1.633l2.332 10.104c.048.21.235.358.45.358h9.247a.461.461 0 100-.923h-8.88l-.355-1.539h9.266c.216 0 .403-.15.45-.36l1.385-6.154a.462.462 0 00-.09-.39zM13.785 8h-9.11L3.468 2.77h11.494L13.785 8zM6.77 12c-.934 0-1.693.76-1.693 1.692 0 .933.76 1.693 1.692 1.693.933 0 1.693-.76 1.693-1.693S7.702 12 6.769 12zm0 2.461a.77.77 0 11.001-1.54.77.77 0 01-.002 1.54zM12.308 12c-.934 0-1.693.76-1.693 1.692 0 .933.76 1.693 1.693 1.693S14 14.625 14 13.692 13.24 12 12.308 12zm0 2.461a.77.77 0 11.001-1.54.77.77 0 01-.001 1.54z" fill="#fff"/></svg><svg fill="none" viewBox="0 0 32 23" id="car" xmlns="http://www.w3.org/2000/svg"><path d="M31.917 14.34l-1.62-2.479a3.866 3.866 0 00-3.25-1.75h-4.19v-2.41a2.671 2.671 0 00-2.669-2.668h-7.841A4.986 4.986 0 007.459.99 4.984 4.984 0 002.48 5.97c0 1.726.884 3.249 2.222 4.142H.508a.508.508 0 100 1.016h5.08v1.016H3.554a.508.508 0 000 1.016h2.032v1.015H.508a.508.508 0 100 1.016h5.08v2.25a2.548 2.548 0 00-1.525 2.328v.502c0 .28.228.508.509.508h4.505a2.811 2.811 0 002.732 2.173c1.33 0 2.445-.93 2.733-2.173h9.773a2.812 2.812 0 002.733 2.173c1.329 0 2.444-.93 2.733-2.173h1.711c.28 0 .508-.227.508-.508v-5.654a.508.508 0 00-.083-.278zM3.497 5.97a3.968 3.968 0 013.962-3.963 3.967 3.967 0 013.963 3.963 3.967 3.967 0 01-3.963 3.963A3.968 3.968 0 013.496 5.97zm3.106 9.221H7.62a.508.508 0 100-1.016H6.603V13.16h3.556a.508.508 0 100-1.016H6.603v-1.016h6.603a.508.508 0 100-1.016h-2.99a4.976 4.976 0 002.218-4.064h7.755c.91 0 1.652.742 1.652 1.653v9.522H6.603v-2.031zm15.238 4.572H14.59a2.797 2.797 0 00-.722-1.524h7.974v1.524zM6.61 18.239h3.142c-.382.413-.642.94-.721 1.524H5.079a1.532 1.532 0 011.53-1.524zm5.2 3.697a1.794 1.794 0 01-1.793-1.792c0-.988.805-1.792 1.792-1.792.989 0 1.793.804 1.793 1.792s-.804 1.792-1.793 1.792zm15.238 0a1.794 1.794 0 01-1.792-1.792c0-.988.804-1.792 1.792-1.792s1.792.804 1.792 1.792-.804 1.792-1.792 1.792zm3.936-2.173h-1.157a2.81 2.81 0 00-2.78-2.427 2.81 2.81 0 00-2.779 2.427h-1.41v-8.635h4.188c.976 0 1.874.482 2.401 1.288l1.537 2.352v4.995z" fill="#fff"/><path d="M27.878 20.144a.83.83 0 11-1.661 0 .83.83 0 011.662 0zM12.64 20.144a.83.83 0 11-1.661 0 .83.83 0 011.661 0zM8.127 5.97V3.748a.508.508 0 10-1.016 0v2.056L6.074 7.226a.507.507 0 10.821.598L8.03 6.27a.508.508 0 00.097-.3zM26.876 11.636h-.971a.508.508 0 00-.508.508v3.555c0 .281.227.508.508.508h3.418a.874.874 0 00.764-.44.872.872 0 00.003-.88l-1.187-2.075a2.34 2.34 0 00-2.027-1.176zm-.463 3.556v-2.54h.463c.473 0 .911.254 1.145.664l1.072 1.875h-2.68z" fill="#fff"/></svg><svg fill="none" viewBox="0 0 32 31" id="cart" xmlns="http://www.w3.org/2000/svg"><path d="M31.798 4.039a.923.923 0 00-.721-.347H6.509L5.822.715A.923.923 0 004.923 0h-4a.923.923 0 000 1.846H4.19l4.663 20.208c.097.419.47.715.9.715h18.494a.923.923 0 100-1.846h-17.76l-.71-3.077h18.532c.431 0 .806-.3.9-.72l2.77-12.308a.923.923 0 00-.18-.78zM27.569 16H9.35L6.937 5.538h22.987L27.57 16zM13.538 24a3.388 3.388 0 00-3.384 3.385 3.388 3.388 0 003.384 3.384 3.388 3.388 0 003.385-3.384A3.388 3.388 0 0013.538 24zm0 4.923A1.54 1.54 0 0112 27.385c0-.849.69-1.539 1.538-1.539.849 0 1.539.69 1.539 1.539a1.54 1.54 0 01-1.539 1.538zM24.615 24a3.388 3.388 0 00-3.384 3.385 3.388 3.388 0 003.384 3.384A3.388 3.388 0 0028 27.385 3.388 3.388 0 0024.615 24zm0 4.923a1.54 1.54 0 01-1.538-1.538c0-.849.69-1.539 1.538-1.539.849 0 1.539.69 1.539 1.539a1.54 1.54 0 01-1.539 1.538z" fill="#fff"/></svg><svg fill="none" viewBox="0 0 50 50" id="deliver" xmlns="http://www.w3.org/2000/svg"><path d="M48.512 34.392a1.463 1.463 0 001.383-1.46c0-4.216-3.384-7.518-7.703-7.518h-1.428l-1.745-8.281a4.76 4.76 0 002.865-4.363 4.756 4.756 0 00-4.748-4.754h-6.75c-.808 0-1.463.656-1.463 1.465v1.824h-3.596a1.464 1.464 0 000 2.93h3.596v1.824c0 .809.655 1.465 1.463 1.465h.65a8.187 8.187 0 00-1.944 5.302v8.336a.077.077 0 01-.077.078h-5.91a.078.078 0 01-.075-.056l-1.593-5.39a3.017 3.017 0 002.233-2.91c0-3.307-2.687-5.997-5.989-5.997H4.499A4.506 4.506 0 000 21.391a4.509 4.509 0 003.871 4.46 11.307 11.307 0 00-3.779 8.441v4.561c0 .809.656 1.465 1.464 1.465H2.82c.682 3.402 3.689 5.974 7.284 5.974 3.596 0 6.603-2.572 7.284-5.974h17.898c.681 3.402 3.688 5.974 7.284 5.974 4.096 0 7.429-3.337 7.429-7.439a7.404 7.404 0 00-1.488-4.46zm-1.783-2.925h-3.294a7.425 7.425 0 00-2.395.107v-3.23h1.152c2.143 0 3.914 1.29 4.537 3.123zm-14.88-20.521h5.287a1.825 1.825 0 010 3.648h-5.287v-3.648zm-8.744 23.223h5.91a3.009 3.009 0 003.003-3.007v-8.336a5.297 5.297 0 014.123-5.16l1.974 9.366v5.873a7.452 7.452 0 00-2.828 4.483H20.74c-.683-5.256-5.023-9.188-10.44-9.188-2.416 0-4.585.79-6.295 2.146 1.413-2.646 4.2-4.45 7.4-4.45h7.01l1.809 6.12a3.02 3.02 0 002.88 2.153zM3.137 37.39c.256-1.56.922-2.965 1.94-4.054 1.329-1.422 3.184-2.205 5.223-2.205 3.774 0 6.823 2.652 7.477 6.258H3.137zM4.5 22.965a1.575 1.575 0 010-3.15H17.68a3.068 3.068 0 013.063 3.067c-.013.06-.11.1-.289.083H4.5zm5.606 20.396a4.51 4.51 0 01-4.258-3.044h8.516a4.51 4.51 0 01-4.258 3.044zm32.466 0a4.511 4.511 0 01-4.503-4.51 4.511 4.511 0 014.503-4.508 4.511 4.511 0 014.503 4.509 4.511 4.511 0 01-4.503 4.509z" fill="#63A60E"/><path d="M42.57 40.328a1.474 1.474 0 100-2.948 1.474 1.474 0 000 2.947zM1.524 12.64h13.122a1.464 1.464 0 000-2.929H1.524a1.464 1.464 0 000 2.93zM6.385 6.638H19.62a1.464 1.464 0 000-2.93H6.385a1.464 1.464 0 000 2.93z" fill="#63A60E"/></svg><svg fill="none" viewBox="0 0 33 32" id="facebook" xmlns="http://www.w3.org/2000/svg"><g clip-path="url(#aiclip0_20_50)"><path d="M21.65 5.313h2.901V.225C24.051.156 22.33 0 20.325 0c-4.183 0-7.048 2.65-7.048 7.519V12H8.66v5.688h4.616V32h5.659V17.69h4.429L24.068 12h-5.133V8.083c0-1.644.44-2.77 2.715-2.77z" fill="#fff"/></g><defs><clipPath id="aiclip0_20_50"><path fill="#fff" transform="translate(.469)" d="M0 0h31.778v32H0z"/></clipPath></defs></svg><svg fill="none" viewBox="0 0 80 59" id="fanta" xmlns="http://www.w3.org/2000/svg"><g clip-path="url(#ajclip0_1922_2248)"><path d="M34.438 58.701c16.159 0 29.258-13.14 29.258-29.35S50.596 0 34.438 0C18.279 0 5.18 13.14 5.18 29.35s13.1 29.351 29.258 29.351z" fill="#F4991D"/><path d="M0 16.311l16.069-1.682s-5.753-4.665-6.376-6.83c0 0-.24-1.2 1.677-1.83 1.918-.63 10.07-3.848 10.07-3.848s11.752-3.656 17.265 10.683l9.83-1.54v1.54L65.8 12.32l.623 6.013h4.316l5.18 17.944L53.38 53.84s-5.18 4.472-16.544 4.713L3.89 45.421 0 16.31z" fill="#2F358C"/><path d="M11.703 7.893s6.573-2.5 7.098-3.031c.573-.576 8.392-3.514 13.812 1.2 0 0 3.836 3.754 5.038 8.276l2.3 4.714 1.196 2.214s.334.817 0 .965c-.333.148-2.78-3.755-2.78-3.755l-1.104-1.59s-.962-1.249-3.743-.673c-2.781.575-7.048 1.058-10.119.531-3.016-.58-10.119-6.643-11.698-8.851z" fill="#75B947"/><path d="M24.172 16.695c-3.071-.532-10.168-6.593-11.753-8.802 0 0 6.573-2.5 7.097-3.031.29-.29 2.83-1.349 5.994-1.442-3.453-.098-6.376 1.107-6.715 1.442-.568.575-7.092 3.03-7.092 3.03 1.585 2.264 8.682 8.326 11.753 8.803 1.054.192 2.207.241 3.404.241-.962-.049-1.874-.098-2.688-.24z" fill="#609744"/><path d="M17.457 9.575s3.021-1.49 4.65 0c3.212 2.933 10.167 4.473 11.511 4.188 0 0-6.955 1.59-8.966.482-2.639-1.447-4.223-3.42-7.195-4.67z" fill="#609744"/><path d="M2.448 18.476L6.19 44.215l5.513-.384-.863-11.066 5.513-.482-.721-4.812-5.513.723-.48-4.664 6.714-1.2-.962-6.161-12.943 2.307zm28.679 2.165l2.639 21.025 5.13-.575-.72-10.584 8.391 9.718 3.983-.482-3.12-25.498-5.66.625 1.197 10.682-6.568-6.018-5.272 1.107z" fill="#fff"/><path d="M36.4 20.017l6.572 6.012-.049-.532-6.524-5.963-5.278 1.107.05.433 5.228-1.057zm11.03-5.295l3.071 25.02h.05l-3.12-25.497-5.66.625.098.482 5.562-.63zm-9.255 16.262l.721 10.101-.672-10.101h-.049z" fill="#CDCBE6"/><path d="M48.873 15.204l.716 5.678 3.355.1 1.535 17.703 6.376-.143-.623-18.043 4.459-.334-.864-6.161-14.954 1.2z" fill="#fff"/><path d="M49.447 15.78l4.557-.625 9.829-1.156-14.965 1.2.72 5.684h.482l-.623-5.103zm4.076 5.777l-.53-.05 1.486 17.178.53-.05-1.486-17.078z" fill="#CDCBE6"/><path d="M24.51 19.293l-5.42.625-2.3 23.48 4.317-.24 1.103-6.255 3.12-.383 2.535 5.771 4.557-.625-7.912-22.373zm-2.398 13.615l.623-4.09h.961l1.437 3.755-3.021.335z" fill="#fff"/><path d="M19.232 20.11l5.322-.768-.05-.049-5.37.625-2.3 23.43.961-.048 1.437-23.19zm9.496 22.033l-2.688-5.678-.623.098 2.448 5.728 4.557-.625v-.142l-3.694.62z" fill="#CDCBE6"/><path d="M69.734 20.882l-7.196 1.107.24 16.021 3.836-.383.24-4.09 2.159-.24 1.677 3.365 4.076-.142-5.032-15.638zm-1.727 9.236c-1.344.098-1.677-.674-1.918-1.442l3.12-.334c0-.006.142 1.677-1.202 1.776z" fill="#fff"/><path d="M63.5 22.324l6.474-.723-.24-.768-7.196 1.107.24 15.972h.334l.388-15.588zm6.376 6.687l-.765.05c-.098.482-.383 1.008-1.153 1.057-.382.05-.721-.05-.962-.142.24.433.672.767 1.585.767 1.344-.05 1.295-1.732 1.295-1.732zm-.383 4.862l-.142.049 1.344 2.696h.05l-1.252-2.745z" fill="#C6C3E1"/><path d="M3.644 27.186l2.688 17.029 1.104-.099-3.12-16.454-.672-.476z" fill="#CDCBE6"/><path d="M77.552 34.398l-.431.1-.05-.143 1.006-.192.05.142-.433.099.192 1.25-.192.049-.142-1.305zm2.159.291c-.05-.192-.099-.433-.142-.575 0 .191-.05.334-.099.575l-.142.723h-.142l-.333-.624c-.099-.192-.191-.335-.24-.532.049.192.049.384.098.625l.049.575-.191.05-.142-1.398.24-.05.333.626c.099.142.142.29.24.433 0-.143.05-.291.05-.483l.142-.723.24-.05.334 1.349-.192.049-.103-.57z" fill="#2F358C"/></g><defs><clipPath id="ajclip0_1922_2248"><path fill="#fff" d="M0 0h80v58.696H0z"/></clipPath></defs></svg><svg fill="none" viewBox="0 0 32 32" id="favicon" xmlns="http://www.w3.org/2000/svg"><path opacity=".2" d="M30.746 31.502c0-.273-6.12-.497-13.66-.497s-13.66.224-13.66.497 6.12.498 13.66.498c7.558 0 13.66-.225 13.66-.498z" fill="#5D5D5D"/><path d="M17.28 6.299c5.943 0 10.765 4.414 10.765 9.856v9.857H17.28c-5.944 0-10.766-4.415-10.766-9.857V6.3h10.766z" fill="#63A60F"/><path opacity=".3" d="M26.502 11.082c-.894.948-1.437 2.184-1.437 3.532 0 2.007 1.192 3.757 2.963 4.704v-3.163a9.17 9.17 0 00-1.526-5.073z" fill="#63A60F"/><path d="M22.276 7.438c-1.683.883-2.805 2.537-2.805 4.447 0 2.825 2.507 5.121 5.593 5.121a5.907 5.907 0 002.964-.786v-.065c0-3.788-2.332-7.08-5.752-8.717z" fill="#63A60F"/><path opacity=".5" d="M13.825 8.209c-2.77 0-5.313.882-7.312 2.375v5.587c0 5.442 4.822 9.857 10.766 9.857h5.155c1.877-1.894 3.016-4.399 3.016-7.16 0-5.892-5.207-10.66-11.625-10.66z" fill="#EFF6E7"/><path d="M28.028 25.996l-10.749.016c-5.944 0-10.766-4.415-10.766-9.857v-9.84l21.515 19.681z" fill="#63A60F"/><path opacity=".3" d="M8.179 9.83c0 7.481 6.628 13.533 14.781 13.533.702 0 1.386-.048 2.052-.128L8.319 7.968c-.088.61-.14 1.236-.14 1.862z" fill="#63A60F"/><path opacity=".3" d="M28.028 26.012L6.6 6.395c2.525 3.451 5.436 6.951 8.4 9.84 2.314 2.248 8.995 7.273 13.028 9.777z" fill="#63A60F"/><path opacity=".3" d="M13.544 12.736L6.513 6.315v9.856c0 4.35 3.086 8.043 7.347 9.344-1.824-1.686-2.946-3.998-2.946-6.534 0-2.408 1-4.592 2.63-6.245z" fill="#63A60F"/><path opacity=".3" d="M23.118 21.517c-1.823 2.039-4.594 3.355-7.697 3.355-2.07 0-3.998-.578-5.594-1.573 1.929 1.686 4.541 2.73 7.435 2.73h10.766v-.017l-4.91-4.495z" fill="#63A60F"/><path opacity=".3" d="M7.144 12.206c0-1.59.298-3.13.86-4.543L6.512 6.315v9.856c0 5.442 4.822 9.857 10.766 9.857h10.766v-.016l-1.07-.98a15.86 15.86 0 01-4.98.788c-8.205-.017-14.85-6.1-14.85-13.614z" fill="#EFF6E7"/><path d="M27.853 27.922c.754-.192 1.543.225 1.735.915.21.69-.245 1.413-1.017 1.59-.754.192-1.543-.225-1.735-.915-.193-.69.263-1.397 1.017-1.59zm-.281-.979c-1.35.337-2.157 1.59-1.788 2.826.35 1.236 1.735 1.974 3.086 1.637 1.35-.337 2.156-1.605 1.788-2.825-.35-1.236-1.736-1.959-3.086-1.638z" fill="#63A60F"/><path opacity=".5" d="M29.36 29.961a1.505 1.505 0 01-.771.482c-.754.192-1.543-.225-1.736-.915a1.226 1.226 0 01.473-1.333 7.782 7.782 0 01-.56-.883c-.842.546-1.263 1.525-.983 2.488.35 1.237 1.736 1.975 3.086 1.638a2.564 2.564 0 001.473-.98c-.333-.16-.666-.32-.982-.497z" fill="#63A60F"/><path d="M7.021 27.922c.754-.176 1.543.241 1.736.932.193.69-.263 1.412-1.017 1.589-.754.176-1.543-.241-1.736-.931-.193-.69.263-1.413 1.017-1.59zm-.28-.979c-1.35.321-2.157 1.59-1.806 2.826.35 1.236 1.735 1.974 3.086 1.653 1.35-.321 2.156-1.59 1.823-2.825-.368-1.236-1.753-1.975-3.103-1.654z" fill="#63A60F"/><path opacity=".5" d="M8.512 29.977a1.385 1.385 0 01-.772.466c-.754.176-1.543-.241-1.736-.931-.14-.514.07-1.028.474-1.333a5.822 5.822 0 01-.544-.883c-.841.53-1.28 1.51-1 2.472.351 1.236 1.737 1.975 3.087 1.654a2.439 2.439 0 001.473-.98 6.73 6.73 0 01-.982-.465z" fill="#63A60F"/><path d="M7.197 5.624c-.333 0-.614-.257-.614-.562 0-1.316-.403-2.311-1.175-2.97C4.163 1.018 2.287 1.13 2.27 1.13c-.333.032-.63-.208-.666-.513-.035-.305.228-.578.561-.61.105 0 2.42-.16 4.068 1.236 1.052.883 1.578 2.167 1.578 3.804 0 .321-.263.578-.613.578z" fill="#63A60F"/></svg><svg fill="none" viewBox="0 0 32 29" id="favourite" xmlns="http://www.w3.org/2000/svg"><path d="M29.665 2.777C28.087.987 25.897 0 23.5 0c-3.372 0-5.506 2.014-6.703 3.703-.311.438-.575.878-.797 1.292a12.245 12.245 0 00-.797-1.292C14.006 2.013 11.872 0 8.5 0 6.103 0 3.913.986 2.335 2.777.829 4.486 0 6.774 0 9.22c0 2.662 1.04 5.139 3.272 7.793 1.994 2.373 4.864 4.818 8.187 7.65a385.452 385.452 0 013.883 3.34l.04.035a.935.935 0 001.236 0l.04-.035c1.364-1.193 2.644-2.284 3.883-3.34 3.323-2.832 6.193-5.277 8.187-7.65C30.96 14.36 32 11.883 32 9.22c0-2.446-.83-4.734-2.335-6.443zm-10.34 20.46c-1.068.909-2.167 1.845-3.325 2.852-1.158-1.007-2.257-1.943-3.325-2.853-6.503-5.542-10.8-9.203-10.8-14.016 0-1.99.663-3.837 1.866-5.203A6.258 6.258 0 018.5 1.875c2.57 0 4.232 1.584 5.174 2.912a11.113 11.113 0 011.435 2.854.937.937 0 001.782 0c.15-.461.591-1.662 1.436-2.854.94-1.328 2.602-2.912 5.173-2.912 1.851 0 3.541.76 4.759 2.142 1.203 1.366 1.866 3.213 1.866 5.203 0 4.813-4.297 8.474-10.8 14.016z" fill="#C1C1C1"/></svg><svg fill="none" viewBox="0 0 32 29" id="heart" xmlns="http://www.w3.org/2000/svg"><path d="M29.665 2.777C28.087.987 25.897 0 23.5 0c-3.372 0-5.506 2.014-6.703 3.703-.311.438-.575.878-.797 1.292a12.245 12.245 0 00-.797-1.292C14.006 2.013 11.872 0 8.5 0 6.103 0 3.913.986 2.335 2.777.829 4.486 0 6.774 0 9.22c0 2.662 1.04 5.139 3.272 7.793 1.994 2.373 4.864 4.818 8.187 7.65a385.452 385.452 0 013.883 3.34l.04.035a.935.935 0 001.236 0l.04-.035c1.364-1.193 2.644-2.284 3.883-3.34 3.323-2.832 6.193-5.277 8.187-7.65C30.96 14.36 32 11.883 32 9.22c0-2.446-.83-4.734-2.335-6.443zm-10.34 20.46c-1.068.909-2.167 1.845-3.325 2.852-1.158-1.007-2.257-1.943-3.325-2.853-6.503-5.542-10.8-9.203-10.8-14.016 0-1.99.663-3.837 1.866-5.203A6.258 6.258 0 018.5 1.875c2.57 0 4.232 1.584 5.174 2.912a11.113 11.113 0 011.435 2.854.937.937 0 001.782 0c.15-.461.591-1.662 1.436-2.854.94-1.328 2.602-2.912 5.173-2.912 1.851 0 3.541.76 4.759 2.142 1.203 1.366 1.866 3.213 1.866 5.203 0 4.813-4.297 8.474-10.8 14.016z" fill="#fff"/></svg><svg fill="none" viewBox="0 0 33 32" id="instagram" xmlns="http://www.w3.org/2000/svg"><g clip-path="url(#anclip0_20_42)" fill="#fff"><path d="M16.449 7.784c-4.506 0-8.154 3.677-8.154 8.21 0 4.538 3.652 8.211 8.154 8.211 4.505 0 8.153-3.677 8.153-8.21 0-4.538-3.651-8.211-8.153-8.211zm0 13.54c-2.925 0-5.293-2.385-5.293-5.33 0-2.943 2.369-5.329 5.293-5.329 2.923 0 5.292 2.386 5.292 5.33.001 2.944-2.367 5.329-5.292 5.329z"/><path d="M22.995.101c-2.924-.137-10.165-.13-13.091 0-2.572.122-4.84.747-6.669 2.588C.18 5.767.57 9.913.57 15.995c0 6.224-.344 10.274 2.665 13.305 3.068 3.088 7.246 2.684 13.214 2.684 6.122 0 8.235.004 10.4-.84 2.944-1.15 5.166-3.8 5.383-8.559.138-2.945.13-10.236 0-13.182C31.97 3.785 28.976.379 22.995.1zm4.628 27.163C25.619 29.28 22.84 29.1 16.41 29.1c-6.62 0-9.275.099-11.212-1.857-2.231-2.236-1.827-5.827-1.827-11.27C3.37 8.606 2.62 3.3 9.96 2.922c1.688-.06 2.184-.08 6.43-.08l.06.04c7.056 0 12.592-.744 12.925 6.648.075 1.686.092 2.193.092 6.462 0 6.59.124 9.279-1.845 11.27z"/><path d="M24.925 9.379a1.912 1.912 0 001.906-1.92c0-1.059-.853-1.918-1.905-1.918A1.912 1.912 0 0023.02 7.46c0 1.06.853 1.919 1.905 1.919z"/></g><defs><clipPath id="anclip0_20_42"><path fill="#fff" transform="translate(.554)" d="M0 0h31.778v32H0z"/></clipPath></defs></svg><svg fill="none" viewBox="0 0 49 29" id="mastercard" xmlns="http://www.w3.org/2000/svg"><g clip-path="url(#aoclip0_19_94)" fill="#fff"><path d="M33.933 0a14.433 14.433 0 00-9.721 3.748A14.442 14.442 0 0014.495.003h-.093C6.444.055 0 6.529 0 14.498c0 8.001 6.494 14.494 14.494 14.494 3.737 0 7.145-1.417 9.716-3.745a14.336 14.336 0 01-1.482-1.584h2.993a14.492 14.492 0 01-1.472 1.553h-.002c-.012.013-.025.021-.037.032a14.44 14.44 0 009.728 3.749c8.005-.003 14.492-6.495 14.49-14.499v-.007C48.429 6.487 41.938-.002 33.933 0zM22.894 5.245h2.755c.406.492.783 1.01 1.125 1.552h-4.915a21.68 21.68 0 011.035-1.552zm-1.891 3.074h6.607c.235.502.443 1.021.625 1.553H20.22c.08-.15.36-.754.783-1.553zM5.917 18.19l.879-5.542-1.983 5.542H3.75l-.138-5.542-.939 5.542H1.184l1.234-7.35H4.67l.079 4.51 1.521-4.51h2.443l-1.217 7.35H5.917zm5.265-.012l.051-.587c-.024.003-.494.709-1.583.709-.57 0-1.49-.311-1.49-1.663 0-1.719 1.402-2.289 2.737-2.289.21 0 .663.038.663.038s.051-.105.051-.389c0-.467-.42-.531-.995-.531-1.013 0-1.682.271-1.682.271l.224-1.33s.812-.34 1.869-.34c.547 0 2.12.058 2.12 1.861l-.606 4.25h-1.359zm5.743-1.872c0 2.051-1.987 1.963-2.334 1.963-1.295 0-1.695-.179-1.732-.189l.206-1.35c.002-.012.65.235 1.371.235.416 0 .956-.041.956-.538 0-.744-1.932-.566-1.932-2.333 0-1.559 1.158-2.015 2.3-2.015.882 0 1.424.121 1.424.121l-.195 1.362s-.837-.069-1.054-.069c-.549 0-.848.12-.848.504-.001.772 1.838.394 1.838 2.309zm2.386.538c.137 0 .292-.047.398-.047l-.193 1.311c-.155.043-.594.199-1.157.203-.719.006-1.23-.396-1.23-1.308 0-.612.877-5.655.911-5.688h1.543l-.157.902h.77l-.197 1.453h-.817l-.434 2.677c-.033.213.026.497.563.497zm3.394-4.797c1.694 0 2.201 1.24 2.201 2.257 0 .407-.204 1.407-.204 1.407h-3.136s-.29 1.235 1.367 1.235c.777 0 1.639-.38 1.639-.38l-.272 1.487s-.498.254-1.63.254c-1.227 0-2.666-.519-2.666-2.699.001-1.889 1.149-3.561 2.701-3.561zm4.087 10.123H21.65c-.313-.5-.605-1.013-.856-1.552h6.843a14.886 14.886 0 01-.845 1.552zm-.345-3.969h-1.584l.963-5.982h1.437l-.138.867s.512-.943 1.203-.943c.201 0 .298.02.298.02-.205.418-.386.801-.574 1.79-1.072-.38-1.154 1.693-1.605 4.248zm6.035-.093s-.83.212-1.35.212c-1.842 0-2.777-1.271-2.777-3.196 0-2.903 1.733-4.449 3.514-4.449.805 0 1.738.378 1.738.378l-.252 1.635s-.631-.441-1.416-.441c-1.05 0-1.992 1.002-1.992 2.823 0 .897.439 1.733 1.535 1.733.521 0 1.276-.379 1.276-.379l-.276 1.684zm3.715.073l.052-.591c-.025.003-.495.709-1.583.709-.57 0-1.49-.311-1.49-1.663 0-1.719 1.402-2.289 2.736-2.289.21 0 .664.038.664.038s.052-.104.052-.388c0-.467-.42-.531-.996-.531-1.013 0-1.681.271-1.681.271l.224-1.33s.812-.34 1.87-.34c.546 0 2.12.058 2.119 1.861l-.606 4.25c-.001.003-1.361.003-1.361.003zm3.207.02H37.82l.963-5.982h1.438l-.138.867s.513-.943 1.204-.943c.201 0 .297.02.297.02-.204.418-.387.801-.574 1.79-1.073-.38-1.155 1.693-1.606 4.248zm4.729-.016l.067-.551s-.512.646-1.438.646c-1.283 0-1.912-1.239-1.912-2.505 0-1.958 1.178-3.665 2.592-3.665.91.002 1.491.805 1.491.805l.334-2.065 1.547-.003-1.18 7.338h-1.501zm3.052-.207a.461.461 0 01-.406.237.471.471 0 01-.404-.237.464.464 0 010-.466.475.475 0 01.404-.236c.08 0 .156.021.23.062a.461.461 0 01.176.64zM47.061 22.4c-.01-.006-.019-.017-.035-.023a.245.245 0 00-.08-.01h-.094v.15h.1c.047 0 .078-.003.096-.02a.066.066 0 00.025-.055.075.075 0 00-.012-.041z"/><path d="M11.022 15.495c-1.13 0-1.36.508-1.36.93 0 .219.125.583.604.583.93 0 1.122-1.218 1.092-1.477-.044-.01-.072-.035-.336-.036zM22.711 13.428c-.841 0-1.003.957-1.003 1.058h1.713c0-.077.161-1.058-.71-1.058zM43.709 13.595c-.68 0-1.216.788-1.215 1.985 0 .73.26 1.198.816 1.198.836 0 1.239-1.091 1.239-1.904 0-.897-.285-1.279-.84-1.279zM47.115 17.552a.377.377 0 00-.146-.145.381.381 0 00-.528.145.403.403 0 00-.053.195c0 .067.018.133.05.194a.409.409 0 00.34.2c.067 0 .133-.02.193-.054a.388.388 0 00.144-.535zm-.217.452l-.045-.078a.404.404 0 00-.084-.118.102.102 0 00-.066-.019h-.046v.214h-.084v-.504h.175c.059 0 .103.005.128.016a.143.143 0 01.064.048.116.116 0 01.023.074.136.136 0 01-.04.096c-.026.029-.062.041-.104.046.02.008.033.017.043.026a.51.51 0 01.074.099l.062.1h-.1zM36.039 15.495c-1.131 0-1.36.508-1.36.93 0 .219.124.583.604.583.929 0 1.121-1.218 1.092-1.477-.045-.01-.073-.035-.336-.036z"/><path d="M46.864 17.602a.091.091 0 00-.034-.025.283.283 0 00-.082-.01h-.091v.153h.099c.047 0 .078-.006.097-.021a.078.078 0 00.024-.056.067.067 0 00-.013-.041z"/></g><defs><clipPath id="aoclip0_19_94"><path fill="#fff" d="M0 0h49v29H0z"/></clipPath></defs></svg><svg fill="none" viewBox="0 0 8 4" id="menu_arrow" xmlns="http://www.w3.org/2000/svg"><path d="M3.475 3.894L.223.627a.37.37 0 010-.52.363.363 0 01.516 0l2.994 3.008L6.728.108a.364.364 0 01.516 0 .37.37 0 010 .52L3.992 3.893a.367.367 0 01-.517 0z" fill="#7CB238"/></svg><svg fill="none" viewBox="0 0 26 17" id="menu_lines" xmlns="http://www.w3.org/2000/svg"><path fill="#63A60E" d="M.917 0h24.896v1H.917zM.917 8h19.917v1H.917zM.917 16h24.896v1H.917z"/></svg><svg fill="none" viewBox="0 0 24 24" id="minus_btn" xmlns="http://www.w3.org/2000/svg"><path d="M0 0h24v24H0V0z" fill="#63A60E"/><g clip-path="url(#arclip0_639_396)"><path d="M19.333 11.333H4.667a.667.667 0 000 1.334h14.666a.667.667 0 100-1.334z" fill="#fff"/></g><defs><clipPath id="arclip0_639_396"><path fill="#fff" transform="translate(4 4)" d="M0 0h16v16H0z"/></clipPath></defs></svg><svg fill="none" viewBox="0 0 80 58" id="pepper" xmlns="http://www.w3.org/2000/svg"><g opacity=".5" clip-path="url(#asclip0_81_70)"><path d="M71.878 15.605a1.224 1.224 0 10-.002-2.449 1.224 1.224 0 00.002 2.45z" fill="#7B002B"/><path d="M72.865 13.931a1.086 1.086 0 01-.733 1.506 1.082 1.082 0 01-1.176-1.62c.111-.183.274-.328.468-.418a1.09 1.09 0 011.441.533z" fill="#fff"/><path d="M46.7 32.835v.323l-5.423 2.557v-.43s.734-.708.734-2.667V20.39s-.236-1.588-1.028-1.933v-.347l3.195-1.375c.313-.135 1.053-.71 1.248-1.03h.286v1.088c1.053-1.646 2.455-2.651 4.149-2.77 2.664-.195 3.339 2.879 3.255 5.016-.135 3.647-2.421 7.76-6.072 8.477-.421.084-.886-.007-1.332-.152v3.681c.002.002-.05 1.336.988 1.79z" fill="#7B002B"/><path d="M34.659 38.333v.33l-5.414 2.558v-.43s.726-.71.726-2.668V25.897s-.237-1.59-1.03-1.935v-.345l3.205-1.377c.313-.133 1.053-.71 1.248-1.038h.28V22.3c1.06-1.648 2.452-2.651 4.148-2.777 2.664-.188 3.33 2.878 3.254 5.023-.135 3.638-2.411 7.753-6.061 8.47-.43.084-.894 0-1.34-.153v3.691c-.002-.004-.045 1.33.984 1.779zm29.806-24.857l-6.67 3.25s-.051 2.33 2.04 2.33 4.654-3.3 4.654-3.3l.236.127-.809 3.14s-3.584 3.513-6.796 3.513c-3.221 0-3.322-4.561-3.322-4.561s-.21-5.124 4.755-8.166c4.968-2.987 6.174 1.758 5.912 3.667z" fill="#7B002B"/><path d="M28.925 29.72l-6.67 3.25s-.051 2.33 2.04 2.33S28.949 32 28.949 32l.236.135-.809 3.14s-3.585 3.505-6.806 3.505c-3.211 0-3.322-4.55-3.322-4.55s-.202-5.133 4.763-8.165c4.97-2.98 6.175 1.748 5.914 3.657z" fill="#7B002B"/><path d="M18.823 40.012v.313l-8.49 3.909v-.362s1.171-1.3 1.171-3.445v-17.15s.085-3.31-1.635-3.968v-.285l9.275-4.273c5.218-2.416 6.787.059 6.998 2.498.27 3.049-.994 6.61-3.878 8.327-1.407.835-2.843 1.62-4.3 2.229v-.514c1.982-1.537 3.145-4.137 3.078-6.695-.034-1.124-1.137-2.6-2.58-1.884l-1.872.939v16.793c0-.002-.053 4.118 2.233 3.568zm51.183-23.54v.236L64.795 19.2v-.422s.59-.794.59-2.306V9.068s-.118-1.047-1.012-1.62l3.684-1.697s.641-.355.928-.777l.195.203v1.097s1.255-2.61 3.078-2.61v3.2s-2.233.388-3.061 2.407v5.724s0 .99.809 1.477zm-22.244-3.664v.236l-5.21 2.492v-.422s.59-.794.59-2.306V5.404s-.119-1.047-1.005-1.621l3.676-1.697s.641-.352.928-.776l.202.202V2.61S48.2 0 50.02 0v3.2s-2.243.387-3.06 2.406v5.725c.002 0 .002.987.802 1.477zM34.22 19.369l-7.124 3.36v-.438s.901-.71.901-3.209V6.772s-.125-1.69-1.221-1.57v-.288l7.319-3.36c3.163-1.453 7.8-.49 7.8 4.364v1.807c-.002 5.32-3.476 9.66-7.675 11.644zM11.193 54.63s-.582.16-.708.352c-.127.195-.354.162-.64.195-.287.036-.287.447-.675.447-.38 0-.769.103-.86.424-.102.32-.514.608-.937.666-.413.068-.894-.058-.379-.38.515-.323.058-.549.058-.71 0-.16.068-.574.32-.674.263-.093.836-.641.836-.641s.195-.287-.125-.321c-.32-.034-.547-.092-.641.127-.092.228-.64 1.19-.64 1.19s-.71-.092-.835.355c-.125.446-.481.835-.64.895-.16.067-.355-.16-.608.035-.253.196-.32-.38-.573-.06-.262.321-.836.287-.836.287s.253-.902-.067-.583c-.32.32-.928.803-1.35.777-.413-.034-.64.026-.8.22-.159.192-.7.033-.7.033l-.39-.389s.48-.32.64-.574c.162-.253.482-.767.642-1.054.159-.295.125-.616.446-.71.32-.1.388-.388.388-.675 0-.285-.48-.253-.641-.067 0 0 0-.381.286-.642a36.523 36.523 0 001.316-1.25c.253-.253.354-.253.354.036 0 .285.058.835.354.835.287 0 .607-.263.675-.55.06-.285.64-.927.38-1.122-.253-.195-.573-.127-.7.126-.136.26-.514.133-.196-.22.32-.354.608-.87.735-1.124.125-.262.388-.514.927-.641.55-.135 2.792-.71 3.433-1.064.641-.353 2.183-1.317 3.431-1.696 1.248-.389.961-.55 1.855-.642.902-.101 1.67-.642 2.15-.964.48-.321.893-.674.893-.321v.06s.229-.381.868-.803c.64-.415 1.568-.608 2.115-.608.547 0 .675-.094.868-.287.185-.195.508-.353.64-.066.126.285.608.066.827-.094.229-.161.388-.388.195-.583-.195-.186-.414-.608-.195-.702.229-.101.49-.101.49.161 0 .254.187.736.38.7.194-.024.159-.927.547-.7.38.22.927-.101 1.5-.287.583-.195 1.063-.835 1.097-.352.024.48.573-.136.835-.297.253-.16.574-1.02 1.087-.77.514.263.514.355.195.609-.32.262-.354.675-.32 1.097.026.415.159.38.64.195.482-.195 3.525-1.476 3.812-1.638.287-.16 2.243-1.123 2.243-1.123s.286-.102.159-.389c-.126-.287-.092-.673-.388-.71-.287-.025-.766-.607-.48-1.123.295-.514.456-.861.456-.22 0 .644.219.736.48.449.252-.287.414-.355.54-.094.125.253.286.058.48-.101.196-.162.48-.06.642.126.159.195.294-.059.354-.321.067-.256.26-1.286.927-1.158.675.135 1.407.135 1.407-.126 0-.253-.16-.48.092-.48.253 0 .48.227.414.767l.48-.026v.929l6.19-2.794s.606-.126.447-.803c-.16-.677-.06-.514-.32-.54-.253-.034-.574-.548-.347-.835.22-.295.38-.871.506-.456.135.422.354.972.354.972s.262.414.448-.295c.195-.702.352-1.054.708-1.317.352-.253.894-.447 1.029-.642.125-.188.219-.482.54-.347.32.126.159.285-.126.48-.287.188-.768.644-.482.862.287.229.414.262.547.103.128-.162.287-.23.287.16 0 .38-.034.86.354.86.379 0 .574-.285.675-.673.092-.381.06-.77.448-.415.378.353.32-.094.32-.094s.058-.388.514-.294c.445.101 1.247-.026 1.534-.253.287-.23 1.383-.997 1.383-.997s.448-.354.607.16c0 0 .195-.321.38-.321.195 0 0-.801.297-.253.286.54 1.373-.871 2.917-1.064 0 0 .414-.22.573.067.16.287.355-.48.834-.32.48.16.516-.353.995-.38.482-.035 1.602-.093 1.602-.641 0-.54-.067-.736-.296-.77-.219-.033-.159-.285.195-.412.354-.136.388.666.514 1.122.127.448.286.127.515-.102.227-.22 1.407-1.088 1.855-.962.455.125.8.034.937.48.125.448.32 0 .32-.218 0-.229-.135-1.285.446-1.512.574-.229.735-.195.995.034.253.22.38-.034.54.54.16.584.513.321.802.162.294-.162 1.221-1.023 1.795-1.023.583 0 .421-.263.421-.263s0-.446.48.036c.482.48.287.263.735.034.448-.227.901-.803.995-.227.091.583.414.352.64-.026.23-.389.23-.972.894-1.192.675-.227 1.51-.514 1.636-.743.135-.22.262-.347.514-.347.262 0 .547-.068.547-.32 0-.264.06-.618.286-.136.227.482.574 1.223-.387 1.58-.962.353-1.73.379-2.05.379-.32 0-.641-.094-.446.354l.446 1.03s-.868-.067-.995.286c-.128.354-.608 1.157-.641 1.698-.034.548-.379.066-.379-.128 0-.193-.421-1.02-.742-1.283-.32-.254-.412-.254-.513.034-.092.287-.574-.068-.641.287-.058.354-.32.482-.64.482-.321 0-.928.447-.381.674.54.228 1.053.414 1.053.414s.64.23-.195.355c-.836.125-1.821.195-2.21.125-.387-.058-1.028-.125-1.028.415 0 .548-.125.736-.482.929-.344.195-.573.48-.573.48s-.768-.446-1.122-.54c-.354-.101-.514.094-.547.415-.034.32.033.55-.287.641-.32.094-1.19.255-1.602.482-.414.228-.995.355-1.156.768 0 0-.574-.22-.894.161-.32.389-1.602 1.098-2.436 1.098-.834 0-2.79.803-3.433 1.214l-.195-.285s-1.956.895-1.956 1.155c0 0-.734-.135-1.407.254-.675.388-.735.482-.482 1.352 0 0-1.212-.16-1.508.093-.287.253-1.18.735-1.248 1.157-.06.413-.448.066-.48-.161-.035-.227.034-.422.422-.548.38-.128.185-.516-.101-.516-.287 0-1.41.32-1.636.516-.22.195-.735.388-.834.127-.094-.255-.508-.127-.665.196-.161.32-.708.641-.135.835.583.195 1.35.352 1.51.227.16-.126.641-.997.641-.642s-.16.861-.513 1.088c-.354.23-.482-.253-1.342-.16 0 0-.294.353-.294.642 0 0-.641.389-.802.575-.16.195-.641-.218-.894-.286-.262-.06-.708-.195-.961.068-.263.253.06.54-.263.673-.32.126-.7.736-1.407.77-.7.034-2.243.48-2.47.606-.219.127-.665.287-.665-.254 0-.547-.421-.388-.481-.033-.068.353-.034 1.03-.574 1.283-.54.253-1.088.126-1.341.287-.26.16-1.67 1.19-1.99 1.351-.32.161-3.845 1.959-9.555 4.263l-.32-.32c.058.087-7.05 4.461-14.318 7.29z" fill="#7B002B"/><path d="M33.673 25.195v5.7c.311.049.631.085.935 0 1.518-.398 2.192-1.992 2.192-3.548v-2.482c0-.989-.64-1.638-1.34-1.63-.946.018-1.425.93-1.787 1.96zM25.09 29.13l-2.86 1.409c.078-.878.659-1.96 1.492-2.374.499-.242 1.333-.319 1.368.965zm7.293-11.881V5.666c4.358-3.606 5.067 1.75 5.009 3.86-.075 3.072-1.18 6.727-5.009 7.723zm28.247-4.364l-2.85 1.409c.068-.878.65-1.967 1.492-2.372.498-.253 1.332-.328 1.358.963zm-14.915 6.812v5.7c.313.059.624.085.928.008 1.517-.405 2.2-2 2.2-3.555v-2.48c0-.997-.641-1.648-1.34-1.639-.945.017-1.436.936-1.788 1.966z" fill="#fff"/><path d="M71.726 15.155l.16-.075-.244-.524.404-.185c.253-.119.287.142.379.277l.094.143.195-.092c-.12-.075-.111-.109-.195-.26-.118-.204-.128-.23-.296-.247.084-.152.1-.227.024-.379-.142-.277-.345-.229-.53-.144l-.547.253.556 1.233z" fill="#7B002B"/><path d="M71.786 13.813c.092-.041.253-.094.328.133.06.162-.034.237-.144.288l-.388.18-.195-.424.399-.177z" fill="#fff"/></g><defs><clipPath id="asclip0_81_70"><path fill="#fff" d="M0 0h80v57.325H0z"/></clipPath></defs></svg><svg fill="none" viewBox="0 0 80 31" id="pepsi" xmlns="http://www.w3.org/2000/svg"><g clip-path="url(#atclip0_1922_2240)"><path d="M15.226 30.337C6.906 30.337.139 23.564.139 15.24c0-8.326 6.768-15.1 15.087-15.1 8.318 0 15.086 6.774 15.086 15.1 0 8.325-6.768 15.098-15.086 15.098z" fill="#fff"/><path d="M15.226.278c8.255 0 14.948 6.698 14.948 14.96 0 8.263-6.693 14.96-14.948 14.96-8.256 0-14.949-6.697-14.949-14.96C.277 6.976 6.97.278 15.226.278zm0-.278C6.83 0 0 6.836 0 15.238c0 8.403 6.83 15.238 15.226 15.238 8.395 0 15.225-6.836 15.225-15.237C30.451 6.835 23.621 0 15.226 0zM79.72 9.102c.168-.196.28-.42.28-.699a1.138 1.138 0 00-.28-.756 1.015 1.015 0 00-.728-.309c-.28 0-.503.112-.728.309-.195.196-.28.448-.28.756 0 .28.085.503.28.7.225.195.449.28.728.28.28 0 .531-.085.728-.28zm.057 10.304v-9.044h-1.512l.028 9.044h1.484zm-3.5-8.595l-.251-.113c-.672-.392-1.484-.588-2.463-.588-1.064 0-1.931.252-2.575.756-.336.252-.56.504-.728.84a1.968 1.968 0 00-.252.98c0 .616.28 1.12.785 1.568.475.42 1.174.756 2.098 1.036.783.252 1.315.504 1.65.756.281.28.45.588.45.98 0 .42-.225.756-.617 1.036-.392.224-.953.364-1.651.364-.756 0-1.511-.196-2.295-.56l-.196-.14-.644 1.176.225.112c.867.42 1.82.615 2.854.615 1.12 0 2.044-.224 2.771-.727.364-.225.616-.532.812-.84.195-.364.28-.756.28-1.148v-.029c0-.672-.28-1.26-.812-1.735-.447-.392-1.175-.728-2.127-1.008-.728-.253-1.26-.505-1.568-.7-.335-.253-.475-.532-.475-.84 0-.365.14-.644.448-.896.336-.224.783-.365 1.37-.365.813 0 1.484.14 2.016.477l.196.14.7-1.147zm-9.123.671c-1.036-.896-2.323-1.371-3.807-1.371-1.456 0-2.659.447-3.638 1.315-1.092.98-1.651 2.324-1.651 4.088v7.028h1.454v-4.536a4.57 4.57 0 001.68 1.177c.672.307 1.4.447 2.184.447 1.483 0 2.742-.447 3.778-1.4 1.064-.924 1.594-2.044 1.594-3.36 0-1.344-.53-2.463-1.594-3.388zm-3.807-.112c1.092 0 2.043.337 2.77 1.008.757.672 1.148 1.511 1.148 2.52 0 .952-.336 1.736-1.007 2.408-.728.7-1.707 1.064-2.883 1.064s-2.128-.364-2.883-1.064c-.7-.7-1.035-1.484-1.035-2.407 0-.925.336-1.737 1.035-2.41.728-.727 1.68-1.119 2.855-1.119zm-7.613.56c-.979-1.232-2.378-1.82-4.254-1.82-1.4 0-2.604.392-3.639 1.232-1.119.868-1.678 2.044-1.678 3.5 0 .812.223 1.624.699 2.38.42.728 1.064 1.316 1.931 1.764.868.42 1.791.616 2.799.616.952 0 1.847-.196 2.715-.616.867-.448 1.51-1.036 1.93-1.764l.28-.476h-1.622c-.337.476-.813.868-1.428 1.176a4.337 4.337 0 01-1.931.448c-.896 0-1.651-.225-2.323-.672a3.687 3.687 0 01-1.4-1.848 7.624 7.624 0 012.856-.56l1.51.167 2.352.225c.727 0 1.344-.113 1.903-.28.224-.084.364-.196.42-.337.084-.111.084-.307.029-.532-.17-1.007-.533-1.874-1.149-2.602zm-.391 2.297l.028.056-.812.112-1.763-.168-2.463-.197h-.42a8.189 8.189 0 00-2.211.448c.111-1.036.616-1.848 1.455-2.436.7-.448 1.484-.7 2.323-.7 1.315 0 2.323.42 3.079 1.26.392.505.671 1.036.784 1.625zM39.641 10.11c-1.428 0-2.66.448-3.639 1.316-1.091.98-1.623 2.324-1.623 4.088l-.028 7.027h1.511l-.028-4.535a4.69 4.69 0 001.652 1.176c.7.308 1.427.447 2.21.447 1.484 0 2.744-.447 3.78-1.4 1.063-.924 1.566-2.044 1.566-3.36 0-1.344-.503-2.463-1.54-3.387-1.062-.896-2.322-1.372-3.861-1.372zm-2.855 2.38c.756-.728 1.68-1.12 2.855-1.12 1.12 0 2.043.337 2.798 1.008.757.672 1.12 1.511 1.12 2.52 0 .952-.336 1.736-.98 2.408-.727.7-1.679 1.064-2.91 1.064-1.148 0-2.127-.364-2.883-1.064-.672-.7-1.008-1.484-1.008-2.407 0-.925.336-1.736 1.008-2.409z" fill="#004883"/><path d="M23.773 3.902a3.67 3.67 0 01-.365-.316 14.157 14.157 0 00-8.182-2.59C7.366.996.996 7.372.996 15.238a14.193 14.193 0 002.816 8.506c4.762-1.407 8.916-3.854 12.477-7.392 3.556-3.52 6.054-7.686 7.484-12.45z" fill="#E32934"/><path d="M15.226 29.48c7.858 0 14.23-6.377 14.23-14.242 0-2.785-.8-5.38-2.18-7.574a.768.768 0 01-.096-.118c.29.956.436 1.949.435 2.948a9.922 9.922 0 01-1.107 4.578 10.358 10.358 0 01-2.983 3.457c-.995.734-2.189 1.356-3.594 1.866-1.118.41-2.573.833-4.376 1.243l-5.197 1.17a83.523 83.523 0 00-6.015 1.604 14.188 14.188 0 0010.883 5.068z" fill="#004883"/></g><defs><clipPath id="atclip0_1922_2240"><path fill="#fff" d="M0 0h80v30.476H0z"/></clipPath></defs></svg><svg fill="none" viewBox="0 0 23 23" id="phone" xmlns="http://www.w3.org/2000/svg"><path d="M21.463 16.589l-3.194-3.196a2.276 2.276 0 00-1.617-.662c-.64 0-1.242.252-1.698.708l-1.244 1.243c-.966-.537-2.25-1.275-3.583-2.609-1.332-1.332-2.07-2.612-2.61-3.583l1.244-1.244c.926-.927.945-2.415.043-3.316L5.61.737A2.266 2.266 0 003.993.072 2.39 2.39 0 002.324.75C2.05.97.674 2.186.161 4.69c-.718 3.507.932 6.882 5.695 11.648 5.322 5.32 9.865 5.733 11.13 5.733.264 0 .423-.017.465-.021 2.482-.291 3.37-1.393 4.02-2.198.84-1.043.837-2.416-.008-3.264zm-1.06 2.403c-.61.756-1.186 1.47-3.111 1.697-.001 0-.107.011-.306.011-1.132 0-5.211-.384-10.16-5.331C2.433 10.974.891 7.96 1.504 4.966c.448-2.185 1.635-3.114 1.682-3.15l.04-.03.036-.036a1.03 1.03 0 01.73-.307c.25 0 .479.093.648.263L7.834 4.9c.368.367.348.985-.043 1.377L6.384 7.683l-.023.024c-.367.404-.324.95-.122 1.306.583 1.052 1.382 2.493 2.918 4.03 1.532 1.531 2.97 2.33 4.02 2.911.104.06.321.158.593.158.32 0 .615-.136.832-.383l1.321-1.32c.197-.198.456-.306.728-.306.25 0 .48.093.649.261l3.192 3.193c.405.407.238 1.03-.09 1.435zM13.388 3.432c1.178.135 2.566.849 3.534 1.818.978.977 1.693 2.379 1.822 3.57a.686.686 0 101.364-.148c-.164-1.506-1.013-3.189-2.216-4.392-1.192-1.192-2.858-2.04-4.347-2.21a.686.686 0 10-.157 1.362zM12.748 6.304c.637.073 1.519.546 2.096 1.123.583.583 1.056 1.473 1.126 2.117a.686.686 0 101.363-.147c-.119-1.1-.849-2.269-1.52-2.94-.664-.664-1.821-1.39-2.909-1.516a.685.685 0 10-.156 1.363z" fill="#fff"/></svg><svg fill="none" viewBox="0 0 24 24" id="plus_btn" xmlns="http://www.w3.org/2000/svg"><path d="M0 0h24v24H0V0z" fill="#63A60E"/><g clip-path="url(#avclip0_639_403)"><path d="M19.2 11.2h-6.4V4.8a.8.8 0 00-1.6 0v6.4H4.8a.8.8 0 000 1.6h6.4v6.4a.8.8 0 001.6 0v-6.4h6.4a.8.8 0 000-1.6z" fill="#fff"/></g><defs><clipPath id="avclip0_639_403"><path fill="#fff" transform="translate(4 4)" d="M0 0h16v16H0z"/></clipPath></defs></svg><svg fill="none" viewBox="0 0 80 49" id="redbull" xmlns="http://www.w3.org/2000/svg"><g clip-path="url(#awclip0_1922_2274)"><path d="M38.956 25.281c.07.014.141.026.212.039l-.212-.039zm.578.096c.082.013.165.023.247.034l-.247-.034zm.611.073c.08.008.16.015.241.02l-.24-.02zm.327.027l.204.012-.204-.012zm.303.017l.241.01-.241-.01zm.321.01c.18.005.36.005.54 0h-.54zm.625 0l.251-.01-.25.01zm.33-.014l.216-.013-.216.013zm.291-.019c.079-.006.158-.012.236-.02l-.236.02zm.639-.064l.18-.024-.18.024zM54.018 5.16a2.275 2.275 0 00-.2-.095l.2.095zm-.656-.235a2.57 2.57 0 00-.253-.039l.253.039zm15.71 12.235l-.046.006.045-.006zm-58.644-3.555a2.411 2.411 0 01-.644-.972c-.107-.31-.247-.697-.247-1.026a3.543 3.543 0 011.81-3.097c.426-.232.583-.39.648-.472a.307.307 0 00-.098-.025c-1.273 0-1.925-.493-2.245-.91-.304-.391-.459-.895-.459-1.446 0-.268.038-.549.113-.835.358-.59.699-.429.908-.126.133.189 1.043.833 2.166.935.817.077 1.257.476 1.486.794.264.369.365.813.365 1.19 0 .155-.017.3-.05.429-.124.498-.65.946-1.382 1.518l-.415.344c-.608.53-.943 1.121-.943 1.622a1.02 1.02 0 00.128.492c.271.46 1.04.747 2.154.358.515-.178 1.506-.8 2.111-1.399.713-.708 1.663-.879 2.579-.95.794-.06 1.283-.255 1.627-.64 1.017-1.144 1.996-1.304 2.912-1.372.35-.027.37-.052.415-.114.505-.67 1.024-1.025 1.49-1.232.354-.157.678-.23.944-.287l.322-.08.08-.027c.51-.164.905-.3 1.943-1l.044-.027.044-.028.044-.026.045-.025.044-.023h.002l.043-.023h.002l.043-.022h.002l.044-.02.002-.002.044-.018h.002l.044-.019h.003l.044-.017.002-.001.044-.016.046-.015h.003l.044-.015h.003l.044-.013.003-.001.044-.012.003-.001.044-.01.004-.001.043-.01.004-.001.044-.01h.004l.044-.008h.004l.044-.008h.003l.044-.007h.004l.044-.006h.004l.043-.006h.005l.043-.004h.005l.043-.003h.005l.042-.003h.005l.043-.002.048-.002h.153l.09.005.042.002h.006l.04.004h.007l.041.004h.006l.041.005h.007l.04.005.007.001.04.005.007.001.04.006.006.001.04.007.007.001.04.007.006.001.04.007.006.002c.062.011.123.025.183.04l.038.01.007.001c.06.016.12.032.179.05l.035.01.008.003c.117.037.23.078.339.122l.03.012.04.017A12.778 12.778 0 0140.78.014a13.404 13.404 0 011.172 0h.001A12.785 12.785 0 0151.59 5.09a3.883 3.883 0 011-.21l.01-.001.033-.002.034-.002H52.685l.033-.002H52.897l.035.002h.007l.035.001h.008l.035.003h.006l.036.004h.007l.035.004h.006c.085.009.17.022.254.039l.037.007.005.002.036.008.005.001.037.01.005.001.038.01.004.001.038.01.004.002.037.011.004.002.038.012.004.001.04.014.04.014.002.001.038.015.002.001.04.016h.002c.067.03.134.06.2.096h.001l.04.022.039.022.04.024.038.025.04.025c.714.485 1.127.698 1.48.838.158.063.305.11.462.16l.082.029.325.08c.177.038.378.082.596.154.547.177 1.2.521 1.833 1.365.046.061.066.086.418.113.915.068 1.893.229 2.914 1.372.342.386.828.58 1.622.64.92.072 1.868.242 2.58.95.605.599 1.595 1.221 2.112 1.4 1.114.388 1.885.1 2.15-.358a.922.922 0 00.134-.493c0-.5-.335-1.091-.942-1.622l-.075-.063-.344-.28c-.73-.572-1.256-1.021-1.383-1.519a2.105 2.105 0 01.315-1.619c.23-.318.675-.716 1.487-.794 1.128-.102 2.035-.746 2.167-.935.212-.302.55-.465.907.126.075.287.113.567.113.835 0 .554-.155 1.055-.458 1.446-.322.417-.973.91-2.247.91a.3.3 0 00-.096.025c.063.082.22.241.646.472a3.546 3.546 0 011.812 3.097c0 .329-.137.716-.248 1.027a2.444 2.444 0 01-.641.971c-.527.488-1.404.871-2.866.784a7.977 7.977 0 01-.46-.042c-.038.736-.24 1.61-.525 2.05-.086.14-.103.232-.103.278l.002.038c.009.003.648.38.648.38l.103.051s.06.029.068.035c.01-.003.22-.013.22-.013l.043-.006h.004c.4-.038 1.01-.233 1.27.49.068.192.11.359.148.506.08.303.147.528.413.732 0 0 .131-.113.28-.245a10.5 10.5 0 00.339-.311c.185-.19.527-.093.774 0 .25.094.558.308.776.433.22.122.341.278.405.465.066.185.218.308.45.431.226.127.548.536.548 1.086 0 .085.01.157.033.234.016.05.039.103.07.163.313.632.061.95-.12 1.084-.245.183-.677.258-1.082.192l.003.104-.592-.079c-.23-.029-.532.03-.713.067l-.042.012a1.228 1.228 0 01-1.316-.618c-.158-.276-.404-.533-.525-.604a2.088 2.088 0 01-.775.079 1.855 1.855 0 01-1.009-.44 2.698 2.698 0 01-.177-.162 1.985 1.985 0 00-1.646-.564l-.259.046c-.533.096-1.2.219-1.816-.156a4.919 4.919 0 00-.59-.28c-.56-.243-1.138-.493-1.217-1.021-.013-.094-.115-.266-.199-.403a3.357 3.357 0 01-.216-.395 1.144 1.144 0 01-.107-.43 1.89 1.89 0 01-.76.037l-.243-.037c-.41-.07-1.266-.21-1.538-.11-.544.194-2.253.289-2.721.182l-.335-.072a4.1 4.1 0 01-.514.445c.343.019.645-.023.852.03l.43.113c.138-.04.474-.036.665-.018l.505.037.575.055c.277.056.571.175.521.717a1 1 0 01-.254.542c-.078.085-.378.52-.444.656l-.022.043c-.117.249-.29.477-.796.477-.064 0-.128.002-.192.008a1.28 1.28 0 01-.057.117c-.114.258-.278.617-.593.825l-.084.06c-.252.18-.672.475-1.315.242l-.221-.078c-.561-.202-1.409-.504-1.837-.738l-.06-.032c-.398-.218-.487-.262-.632-.241l-.08.012c-.306.043-.882.12-1.28-.539l-.037-.057a12.797 12.797 0 01-8.005 5.04l-.014.004c-.112.02-.224.039-.337.057l-.042.006-.154.023-.18.024-.11.014-.173.018-.12.013-.235.02-.075.005c-.072.005-.143.01-.216.013l-.08.004-.25.01-.086.001c-.18.005-.36.005-.539 0l-.08-.001-.242-.01-.098-.005-.204-.012-.086-.006-.24-.02-.12-.012-.157-.017-.088-.01a7.934 7.934 0 01-.247-.035l-.1-.014-.175-.028-.091-.015-.212-.038-.153-.03-.078-.017c-.104-.022-.209-.045-.313-.07l-.027-.006-.163-.04-.084-.021a14.973 14.973 0 01-.29-.079l-.035-.01a12.8 12.8 0 01-6.983-5.028l-.218.33c-.395.66-.97.582-1.28.54l-.08-.013c-.144-.02-.236.023-.63.24l-.064.034c-.426.233-1.271.535-1.835.737l-.222.079c-.642.233-1.064-.064-1.311-.243l-.087-.06c-.314-.207-.477-.567-.593-.825 0 0-.038-.076-.056-.117a1.853 1.853 0 00-.193-.007c-.5 0-.68-.229-.794-.478l-.02-.042a5.126 5.126 0 00-.448-.657.986.986 0 01-.253-.542c-.052-.541.246-.66.521-.716l.576-.055.505-.038c.188-.017.524-.022.661.018l.431-.113c.206-.053.51-.01.85-.03a4.885 4.885 0 01-.512-.445l-.335.072c-.47.107-2.176.013-2.716-.182-.274-.1-1.13.04-1.54.11l-.247.038a1.885 1.885 0 01-.755-.038c-.013.309-.18.588-.324.825-.084.137-.19.31-.202.403-.074.528-.659.778-1.216 1.021a4.977 4.977 0 00-.589.28c-.611.375-1.28.253-1.816.156l-.26-.045a1.986 1.986 0 00-1.645.563c-.801.798-1.598.622-1.961.523-.12.071-.368.328-.525.605a1.23 1.23 0 01-1.317.617l-.044-.011c-.179-.038-.477-.096-.706-.068l-.596.08.007-.105c-.408.066-.84-.01-1.086-.192-.18-.134-.434-.452-.114-1.083a.818.818 0 00.099-.397c0-.551.32-.96.544-1.087.235-.122.39-.245.453-.431a.81.81 0 01.402-.465c.218-.124.528-.339.776-.433.248-.093.59-.189.777 0 .188.183.618.556.618.556.396-.305.358-.655.563-1.238.256-.723.869-.528 1.267-.49l.045.006s.215.01.221.013l.071-.035.1-.052.649-.38c.003-.007.003-.018.003-.037a.55.55 0 00-.103-.277c-.286-.441-.488-1.315-.524-2.05a7.885 7.885 0 01-.3.03c-1.557.124-2.482-.268-3.023-.774z" fill="#F8EE3F"/><path d="M14.259 13.812s-.13 1.252.436 2.355c0 0 .419.592-.016.972l-.866.502s-.117.087-.503.057c0 0-.534-.132-.712.104 0 0-.155.452-.35.825 0 0-.394.903-1.046 1.193 0 0-.52.119-.678.568 0 0-.168.316-.504.33 0 0-.25.08-.416.636 0 0-.09.36-.086.636 0 0 .427-.056.706.044 0 0 .684.23.99-.333 0 0 .592-1.01 1.03-.858 0 0 .881.294 1.504-.347 0 0 .854-.931 2.061-.74 0 0 1.36.275 1.784-.038 0 0 .858-.447 1.18-.558 0 0 .393-.115.434-.545 0 0 .24-.605.413-.806l-.648-.007s-.588.985-1.586 1.282c0 0-.545.217-1.64.04 0 0-1.574-.355-2.955 1.133 0 0-.19.272-.459.163 0 0 .764-1.298 2.44-1.605 0 0 .548-.117 1.006-.043 0 0 2.257.067 3.304-2.15 0 0-.113-1.89.387-2.337 0 0 .193-.06.154.306 0 0-.343 1.98.302 2.363 0 0 .374.294 1.067.185 0 0 1.05-.25 1.904-.104 0 0 1.313.31 2.441.167 0 0-.293-.448-.235-.982 0 0 .162-.383.347-.137 0 0 .434 1.43 1.62 1.86 0 0 1.06.384 1.042 1.724 0 0-.162.184-1.567.682 0 0-.525.165-.694-.226 0 0-.677-1.446-1.267-1.402l-1.107.09s-.378.097-.1.399c0 0 .38.502.534.802 0 0 .045.257.402.202 0 0 .494-.244.772.673 0 0 .255.458.687.605 0 0 .404.134.783-.078 0 0 1.829-.67 2.147-.907 0 0 .396-.22.71-.114 0 0 .548.13.774-.302l.567-.874s.124-.215.107-.486c0 0 .051-.268-.176-.54 0 0-.214-.226-.247-.39l-.404-.947s-.164-.253-.344-.357l-.54.04s.372.946.644 1.331c0 0 .367.561.349.918 0 0-.024.25-.123.354 0 0-.125.199-.175.295 0 0-.163.354-.296.433 0 0-.23.135-.285.14 0 0-.1.028-.026-.15 0 0 .302-.634.282-.974 0 0 .059-.353-.192-.56 0 0-.588-.925-.672-1.202 0 0-.184-.37-.282-.433 0 0-.206-.27.126-.395 0 0 .825-.186.973-.287 0 0 .397-.12.655-.944 0 0 .355-.962.35-1.556 0 0 .696 1.339-.414 2.7 0 0 .878.258 1.242 0 0 0 1.094-.16 1.305-.218 0 0 .275-.067.118.128 0 0-.33.468-.358.775 0 0-.021.244-.222.387 0 0-.622.434-.676.85 0 0-.133.4.142.305 0 0 .372-.172.503.001 0 0 .039.018-.105.179 0 0-.373.324-.401.76 0 0 .069.501.201.663 0 0 .168.232.434.158 0 0 .07-.057.198-.018 0 0 .131 0 .475-.12 0 0 .52-.142.695-.203 0 0 .662-.237.99-.22 0 0 .212-.024.483.03 0 0 .829.094 1.381-.515 0 0 .42-.332.563-.01 0 0 1.009 1.35 2.641.995 0 0-1.299-.533-1.636-1.259 0 0-.044-.616-.725-1.47 0 0-.208-.285-.007-.358 0 0 .116-.087.37.166 0 0 .646.619.88 1.185 0 0 .802 1.21 1.959.803 0 0-.909-.35-1.335-1.001 0 0-.264-.882-1.15-1.538 0 0-.035-.991-.449-1.548 0 0-.21-.93-.268-1.148 0 0-.223-.818-.221-1.044 0 0 .074-1.067-.617-1.899 0 0-.462-.889-1.183-1.508 0 0-.547-.675-.954-1.088 0 0-.535-.626-1.703-1.443 0 0-.529-.383-.916-.795 0 0-2.06-1.479-3.548-.293 0 0-1.027.697-1.886.913 0 0-1.763.205-2.515 1.426 0 0-.065.225-.776.311 0 0-1.561-.188-2.71 1.344 0 0-.535.52-1.592.646 0 0-1.725-.176-2.848 1.143 0 0-2.833 2.464-4.522.866 0 0-.875-.826.125-2.323 0 0 .635-.764 1.718-1.562 0 0 .878-.617.476-1.577 0 0-.213-.927-1.53-.951 0 0-1.651-.318-2.32-1.15 0 0-.745 2.62 2.182 2.576 0 0 .763.112.497.716 0 0-.374.517-.876.705 0 0-.883.385-1.282 1.668 0 0-.892 2.245 1.284 3.111.837.289 1.804.204 2.666.054zm-4.19 5.29a.534.534 0 01.445-.117c.347.074.137.373.137.373-.14.262-.598.703-.598.703-.407.304-.73-.058-.73-.058-.301-.297.091-.44.091-.44.229-.092.656-.46.656-.46zm-.872 1.404s.126.093.059.277c0 0-.323.882-.308 1.178 0 0-.715.128-.814-.224 0 0-.02-.136.097-.333 0 0 .121-.184.153-.52 0 0-.01-.846.539-.622.109.06.195.15.274.244zm25.205-1.79c-.126-.004-.158-.05-.142-.188.084-.384.393-.55.393-.55.58-.345.65 0 .65 0 .106.617-.383.695-.383.695-.097.034-.518.043-.518.043zm1.749-2.756c.01-.289.035-.932-.26-1.162-.109-.086-.54-.557-.54-.557-.065-.114-.115-.12-.115-.12-.09-.01-.204.197-.204.197-.306.59-.612.518-.612.518a.507.507 0 01.07-.228c.148-.287.294-.574.44-.862.044-.102.085-.239.085-.239.296-.457.575-.109.575-.109.124.242.788 1.032.788 1.032a.701.701 0 01.161.362c.154 1.081-.388 1.168-.388 1.168zm-6.112-6.526c-.09-.163-.053-.329.038-.487.205-.314.397.029.397.029.71.985.186 2.461.186 2.461-.073-1.358-.62-2.003-.62-2.003zm38.066 4.378s.13 1.252-.436 2.355c0 0-.42.592.016.972l.866.502s.116.087.503.057c0 0 .534-.132.712.104 0 0 .155.452.349.825 0 0 .395.903 1.047 1.193 0 0 .52.119.677.568 0 0 .169.316.504.33 0 0 .251.08.417.636 0 0 .09.36.086.636 0 0-.428-.056-.706.044 0 0-.685.23-.99-.333 0 0-.592-1.01-1.03-.858 0 0-.882.294-1.504-.347 0 0-.854-.931-2.062-.74 0 0-1.359.275-1.783-.038 0 0-.858-.447-1.18-.558 0 0-.394-.115-.434-.545 0 0-.24-.605-.413-.806l.648-.007s.587.985 1.585 1.282c0 0 .546.217 1.641.04 0 0 1.574-.355 2.955 1.133 0 0 .189.272.458.163 0 0-.763-1.298-2.44-1.605 0 0-.547-.117-1.005-.043 0 0-2.258.067-3.305-2.15 0 0 .114-1.89-.386-2.337 0 0-.193-.06-.155.306 0 0 .343 1.98-.301 2.363 0 0-.375.294-1.068.185 0 0-1.05-.25-1.904-.104 0 0-1.313.31-2.441.167 0 0 .293-.448.236-.982 0 0-.162-.383-.347-.137 0 0-.434 1.43-1.621 1.86 0 0-1.06.384-1.042 1.724 0 0 .162.184 1.567.682 0 0 .526.165.695-.226 0 0 .677-1.446 1.267-1.402l1.107.09s.378.097.1.399c0 0-.38.502-.535.802 0 0-.044.257-.4.202 0 0-.495-.244-.774.673 0 0-.255.458-.686.605 0 0-.404.134-.783-.078 0 0-1.829-.67-2.147-.907 0 0-.396-.22-.71-.114 0 0-.547.13-.773-.302l-.567-.874s-.125-.215-.108-.486c0 0-.051-.268.176-.54 0 0 .214-.226.248-.39l.404-.947s.164-.253.343-.357l.54.04s-.372.946-.644 1.331c0 0-.368.561-.349.918 0 0 .025.25.123.354 0 0 .125.199.175.295 0 0 .163.354.296.433 0 0 .23.135.285.14 0 0 .1.028.026-.15 0 0-.302-.634-.283-.974 0 0-.058-.353.192-.56 0 0 .588-.925.673-1.202 0 0 .184-.37.282-.433 0 0 .205-.27-.126-.395 0 0-.825-.186-.973-.287 0 0-.397-.12-.655-.944 0 0-.355-.962-.35-1.556 0 0-.696 1.339.414 2.7 0 0-.878.258-1.242 0 0 0-1.093-.16-1.305-.218 0 0-.275-.067-.118.128 0 0 .33.468.358.775 0 0 .02.244.222.387 0 0 .622.434.676.85 0 0 .133.4-.142.305 0 0-.372-.172-.503.001 0 0-.039.018.105.179 0 0 .373.324.4.76 0 0-.068.501-.2.663 0 0-.168.232-.434.158 0 0-.07-.057-.199-.018 0 0-.13 0-.474-.12 0 0-.521-.142-.695-.203 0 0-.663-.237-.99-.22 0 0-.213-.024-.484.03 0 0-.829.094-1.381-.515 0 0-.42-.332-.563-.01 0 0-1.009 1.35-2.641.995 0 0 1.3-.533 1.636-1.259 0 0 .044-.616.725-1.47 0 0 .208-.285.007-.358 0 0-.116-.087-.37.166 0 0-.645.619-.879 1.185 0 0-.803 1.21-1.96.803 0 0 .908-.35 1.335-1.001 0 0 .264-.882 1.151-1.538 0 0 .035-.991.448-1.548 0 0 .212-.93.268-1.148 0 0 .223-.818.221-1.044 0 0-.074-1.067.617-1.899 0 0 .462-.889 1.183-1.508 0 0 .547-.675.954-1.088 0 0 .536-.626 1.704-1.443 0 0 .528-.383.915-.795 0 0 2.06-1.479 3.548-.293 0 0 1.028.697 1.886.913 0 0 1.764.205 2.515 1.426 0 0 .065.225.775.311 0 0 1.562-.188 2.712 1.344 0 0 .534.52 1.592.646 0 0 1.723-.176 2.846 1.143 0 0 2.833 2.464 4.523.866 0 0 .874-.826-.126-2.323 0 0-.634-.764-1.717-1.562 0 0-.879-.617-.476-1.577 0 0 .213-.927 1.53-.951 0 0 1.651-.318 2.319-1.15 0 0 .746 2.62-2.181 2.576 0 0-.764.112-.497.716 0 0 .374.517.876.705 0 0 .883.385 1.282 1.668 0 0 .892 2.245-1.285 3.111-.836.289-1.803.204-2.665.054zm4.189 5.29a.534.534 0 00-.444-.117c-.347.074-.137.373-.137.373.14.262.598.703.598.703.408.304.73-.058.73-.058.3-.297-.092-.44-.092-.44-.228-.092-.655-.46-.655-.46zm.872 1.404s-.126.093-.058.277c0 0 .323.882.308 1.178 0 0 .715.128.814-.224 0 0 .019-.136-.098-.333 0 0-.12-.184-.152-.52 0 0 .01-.846-.539-.622-.11.06-.195.15-.275.244zm-25.205-1.79c.126-.004.159-.05.143-.188a.867.867 0 00-.393-.55c-.58-.345-.65 0-.65 0-.106.617.383.695.383.695.097.034.517.043.517.043zm-1.748-2.756c-.01-.289-.036-.932.26-1.162.11-.086.54-.557.54-.557.065-.114.115-.12.115-.12.088-.01.204.197.204.197.306.59.612.518.612.518.002-.108-.07-.228-.07-.228a96.94 96.94 0 01-.44-.862 2.663 2.663 0 01-.086-.239c-.296-.457-.574-.109-.574-.109-.125.242-.788 1.032-.788 1.032a.7.7 0 00-.162.362c-.153 1.081.39 1.168.39 1.168zm6.111-6.526c.091-.163.054-.329-.038-.487-.205-.314-.396.029-.396.029-.71.985-.186 2.461-.186 2.461.072-1.358.62-2.003.62-2.003zM.013 29.86v18.08h3.659V33.31h1.723s2.69-.12 2.69 2.322c0 2.443-2.388 2.382-2.388 2.382H4.82v4.161l3.66 5.766h4.292l-5.11-7.393s4.203-.362 4.203-4.916c0-4.552-3.175-5.772-7.407-5.772H.013zM53.5 38.315s1.602-1.242 1.602-3.598-1.715-4.48-5.37-4.48h-6.119V47.94h7.538s5.402-.06 5.402-4.93c0-2.826-1.1-3.908-3.052-4.694zm-2.948 6.543h-3.28V33.325h1.753s2.383-.179 2.383 1.894-1.895 1.89-1.895 1.89H48.42v3.108h2.13c.56 0 2.338.27 2.338 2.312s-2.337 2.33-2.337 2.33zM76.57 29.504h3.417V47.94H76.57V29.504zm-5.88 0h3.462V47.94H70.69V29.504zM57.583 37.14h3.506v6.181s.122 2.082 2.087 2.082c1.965 0 1.936-2.082 1.936-2.082V37.17h3.536v6.364s.454 4.975-5.382 4.975c-5.835 0-5.683-4.372-5.683-5.156V37.14zM34.33 29.504v8.36s-1.693-1.296-3.63-1.296c-1.933 0-5.199 1.357-5.199 5.638s2.782 5.91 5.17 5.91c2.39 0 3.72-1.568 3.72-1.568v1.393h3.446V29.504H34.33zM31.671 45.1c-.183 0-2.45.03-2.45-2.743 0-2.775 2.479-2.865 2.479-2.865s2.782.09 2.782 2.804-2.63 2.804-2.812 2.804zm-13.063-8.533c5.866 0 5.624 5.7 5.624 5.7v.903H16.28c0 1.297 1.088 2.413 2.57 2.413 1.481 0 2.237-1.417 2.237-1.417l2.812 1.386c-1.3 1.961-3.053 2.744-5.019 2.744-6.108 0-6.228-5.065-6.228-5.698 0-.634.09-6.03 5.956-6.03zM16.34 41.09h4.355s-.182-2.05-2.147-2.05c-1.965 0-2.208 2.05-2.208 2.05z" fill="#CC2729"/></g><defs><clipPath id="awclip0_1922_2274"><path fill="#fff" d="M0 0h80v48.508H0z"/></clipPath></defs></svg><svg fill="none" viewBox="0 0 50 50" id="return" xmlns="http://www.w3.org/2000/svg"><path d="M33.691 50H11.72C5.257 50 0 44.743 0 38.281V11.72C0 5.257 5.257 0 11.719 0H38.28C44.743 0 50 5.257 50 11.719v17.285c-.103 2.591-3.804 2.59-3.906 0V11.719c0-4.308-3.505-7.813-7.813-7.813H11.72c-4.308 0-7.813 3.505-7.813 7.813V38.28c0 4.308 3.505 7.813 7.813 7.813H33.69c2.592.103 2.59 3.804 0 3.906zm-1.757-39.258A1.953 1.953 0 0029.98 8.79h-9.96c-2.592.103-2.59 3.804 0 3.906h9.96a1.953 1.953 0 001.954-1.953zm-.586 32.13c-.499 0-.998-.19-1.379-.57l-3.25-3.24A5.802 5.802 0 0125 34.928c0-1.563.61-3.032 1.718-4.136l3.266-3.186a1.953 1.953 0 112.727 2.797l-3.241 3.161c-.749.723-.746 2.013.006 2.733l3.25 3.238c1.235 1.224.338 3.347-1.378 3.337zm16.18 4.618c5.313-5.334 1.478-14.597-6.073-14.58h-6.982c-2.592.103-2.59 3.804 0 3.906h6.982a4.644 4.644 0 014.639 4.64c0 2.557-2.06 4.638-4.59 4.638-2.59.102-2.591 3.803 0 3.906a8.415 8.415 0 006.025-2.51z" fill="#63A60E"/></svg><svg fill="none" viewBox="0 0 21 20" id="search" xmlns="http://www.w3.org/2000/svg"><path d="M9.02 16.472C4.477 16.472.78 12.777.78 8.236S4.476 0 9.02 0c4.545 0 8.242 3.695 8.242 8.236s-3.697 8.236-8.242 8.236zm0-14.91c-3.682 0-6.679 2.994-6.679 6.674s2.997 6.675 6.68 6.675 6.68-2.995 6.68-6.675c0-3.68-2.997-6.675-6.68-6.675zm11.53 18.21a.78.78 0 000-1.105l-3.496-3.493a.782.782 0 00-1.105 1.104l3.496 3.493a.779.779 0 001.105 0z" fill="#31352B"/></svg><svg fill="none" viewBox="0 0 80 34" id="sprite" xmlns="http://www.w3.org/2000/svg"><path fill-rule="evenodd" clip-rule="evenodd" d="M54.136.003a5.914 5.914 0 00-2.307.644c-1.218.643-3.525 3.248-3.525 3.248-1.411 1.8.127 2.025.127 2.025 0 .032.032.032.065.032a9.996 9.996 0 00-.673.74c-.385.45-.546.836-.578 1.125v.29c.097.514.705.61.705.61 2.5.42 1.892 1.93 4.07 2.96.77.353 1.476.546 2.116.643 1.667.193 2.982-.386 3.879-.869 2.05-1.157 2.884-2.83 3.076-2.99.16-.16.898-1.415-.256-1.8.385-.515.641-.933.737-.997.097-.065.384-.547.384-.965 0-.418-.192-.804-.96-.9-1.571-.29-1.988-1.576-3.911-2.927-.994-.708-2.02-.9-2.949-.869zm0 11.19c-1.762-.225-2.724-1.479-3.365-2.219-.673-.771-1.442-1.125-1.795-1.221-.352-.065-.384-.032-.257-.225.129-.194.802-.933.802-.933 1.634 2.347 3.558 3.022 4.615 3.248.481.096.77.064.77.064 1.955.386 4.712-1.511 4.712-1.511-.77.9-2.5 2.797-4.84 2.83-.225 0-.449 0-.642-.033z" fill="#FFF22D"/><path fill-rule="evenodd" clip-rule="evenodd" d="M20.418 23.573l-3.911 9.742h7.308s-1.314-.675-.641-2.7c.705-2.026 1.378-3.891 1.378-3.891s.096-.194.257-.064c0 0 .48 1.125 2.788 1.06.192-.031.417-.031.609-.063 2.115-.193 4.263-1.19 5.48-4.116.29-.707.61-1.415.898-2.123 1.09-2.572 1.891-5.112.128-6.623-.032-.032-.096-.064-.128-.096-1.41-1.094-3.205-.997-6.379-.933-1.346 0-2.948.032-4.872-.064l-.897.16s1.378.837.737 2.637c-.255.739-1.441 3.794-2.755 7.074zm57.245 3.44c.737-.224 1.378-.868 1.57-1.769.257-1.125-.384-1.865-1.314-1.865-.097 0-.16.033-.256.033a2.176 2.176 0 00-1.123.546c-.256.225-.48.547-.64.9l-.096.386c-.097.45-.033.869.096 1.158.16.257.352.482.64.579.193.064.385.096.61.096v.032c.175 0 .35-.033.513-.096zm0-4.148c.128-.032.256-.032.384-.032 1.25 0 2.211.901 1.89 2.411a3.042 3.042 0 01-2.274 2.348c-.225.032-.417.065-.642.065-.16 0-.32-.033-.48-.033a3.73 3.73 0 01-.641-.224c-.642-.386-.994-1.126-.802-2.155.16-.611.45-1.125.802-1.51a3.03 3.03 0 01.64-.483c.354-.194.738-.354 1.123-.387zm0 3.505l-.32-.932h-.257l-.225 1.092h-.544l.223-1.125.321-1.478h.961c.673 0 1.027.192.898.803-.096.483-.417.643-.769.675l.417 1.125h-.641l-.064-.16zm0-1.994h.032c.224 0 .48.033.448.29-.063.29-.224.354-.48.354h-.481l.129-.644h.352zM76.54 14.86c.385.74.225 1.543.16 1.993 0 .225-.063.515-.16.804a12.277 12.277 0 01-.64 1.704c-.29.708-.578 1.255-.578 1.255h-7.34c-.8 1.639-.513 3.954 2.116 3.826.128 0 .256 0 .384-.032 2.436-.225 4.103-1.576 4.103-1.576l-1.09 2.83s-.705 1.157-3.013 1.64c-.8.193-1.827.29-3.045.224-1.73-.063-2.916-.546-3.685-1.253-2.757-2.477-.385-7.717-.61-7.171.129-.322.32-.868.61-1.544.833-1.832 2.595-4.469 6.73-4.63h.674c2.563.065 4.006.547 4.743 1.158.322.257.513.515.641.772zm-6.057 3.698h.865c.385-.065 1.795-2.637-.064-2.83a1.623 1.623 0 00-.801.129c-1.25.514-1.73 2.572-1.73 2.572-.033.13.127.13.127.13h1.603v-.001zm-6.73-2.862h.416l.93-2.187h-2.244l.898-2.283 1.025-2.54h-1.987c-2.308 5.305-6.7 4.823-6.7 4.823l-.897 2.187h1.603l-3.301 8.231-1.443 3.57h7.692c-2.019-.902-1.378-2.573-1.378-2.573s2.276-5.917 3.654-9.228h1.731zm-10.257 1.35c-1.38 3.377-3.11 7.878-3.11 7.878s-.577 1.575 1.09 2.572h-7.692l2.244-5.562 3.333-8.329h5.577c-.257.515-.802 1.866-1.442 3.441zm-7.468.74c-.482-.322-1.38-.61-2.693.257-1.73 1.157-3.333 6.881-3.333 6.881s-.353 1.866 1.09 2.573H33.43s.48-1.19 1.154-2.83c1.282-3.215 3.237-8.039 3.27-8.2.063-.289.993-1.575-.45-2.733h5.417l-.481 1.415s.032.225.224 0c.16-.16 1.155-1.35 3.463-1.768.608-.13 1.346-.194 2.211-.13l-1.89 4.824s-.098-.16-.321-.289zm-17.822 5.884c-.417.772-.898 1.19-1.666 1.061-1.539-.257 1.09-5.176 1.57-6.752 0 0 .032-.13.096-.29.225-.546.738-1.607 1.475-1.253.93.418.897.964-.096 3.6-.514 1.416-.898 2.766-1.379 3.634zm-3.91-16.077L21.7 12.48s-.065-2.348-1.282-3.73c-.61-.676-1.443-1.126-2.693-.997-3.782.354-2.788 3.858-2.34 4.984 0 0 3.206 8.007 3.237 8.585.064.579 1.186 3.344-1.538 6.462 0 0-4.071 5.788-12.95 2.766 0 0-3.205-1.094-4.134-4.34l3.686-4.695s-1.025 6.141 4.744 5.659c5.417-.483 1.699-7.653 1.378-8.521-.545-1.576-3.846-8.907-.032-12.283 2.725-2.444 7.244-3.151 10.642-1.993 1.698.578 3.14 1.64 3.878 3.215z" fill="#33A457"/></svg><svg fill="none" viewBox="0 0 16 16" id="star_raiting" xmlns="http://www.w3.org/2000/svg"><g clip-path="url(#baclip0_17_846)"><path d="M.023 6.164a.469.469 0 01.378-.319l4.96-.72L7.58.63a.469.469 0 01.84 0l2.219 4.495 4.96.72a.469.469 0 01.26.8l-3.59 3.498.848 4.94a.469.469 0 01-.68.495L8 13.245l-4.436 2.333a.469.469 0 01-.68-.495l.847-4.94-3.59-3.498a.469.469 0 01-.118-.48z" fill="#FFB800"/></g><defs><clipPath id="baclip0_17_846"><path fill="#fff" transform="matrix(-1 0 0 1 16 0)" d="M0 0h16v16H0z"/></clipPath></defs></svg><svg fill="none" viewBox="0 0 50 50" id="support" xmlns="http://www.w3.org/2000/svg"><g clip-path="url(#bbclip0_15_116)" fill="#63A60E"><path d="M48.866 17.536a1.465 1.465 0 00-2.796.873c.664 2.125 1 4.343 1 6.591 0 12.17-9.9 22.07-22.07 22.07S2.93 37.17 2.93 25 12.83 2.93 25 2.93a22.065 22.065 0 0115.165 6.037l-3.141-.783a1.465 1.465 0 00-.709 2.843l8.44 2.103.012.003a1.466 1.466 0 001.386-.397c.364-.37.505-.904.371-1.405l-2.242-8.388a1.465 1.465 0 00-2.83.757l.878 3.284A24.992 24.992 0 0025 0C18.322 0 12.044 2.6 7.322 7.322 2.6 12.044 0 18.322 0 25c0 6.678 2.6 12.956 7.322 17.678A24.837 24.837 0 0025 50c6.678 0 12.956-2.6 17.678-7.322C47.4 37.956 50 31.678 50 25c0-2.545-.382-5.056-1.134-7.464z"/><path d="M28.337 26.192h-.123v-7.46a1.465 1.465 0 00-2.644-.869l-6.558 8.91a1.464 1.464 0 001.177 2.333l5.095.01v2.24a1.465 1.465 0 002.93 0v-2.234H28.334a1.465 1.465 0 00.003-2.93zm-5.252-.01l2.2-2.989v2.993l-2.2-.004z"/><path d="M17.597 29.877h-4.338c.688-.8 1.496-1.583 2.25-2.314 1.906-1.849 3.553-3.445 3.553-5.301a5.062 5.062 0 00-5.058-5.055 5.043 5.043 0 00-4.655 3.088 1.465 1.465 0 002.699 1.139 2.118 2.118 0 011.957-1.297c1.173 0 2.127.953 2.127 2.125 0 .032-.018.332-.615 1.072-.516.64-1.26 1.362-2.048 2.126-1.589 1.542-3.39 3.288-4.28 5.286a1.463 1.463 0 001.338 2.06h7.07a1.465 1.465 0 000-2.929zM36.635 22.27c-.49 0-.961.09-1.4.257v-3.904a1.465 1.465 0 10-2.93 0v12.754a1.465 1.465 0 102.93 0v-4.101c.018-.093.028-.189.028-.287 0-.97.628-1.79 1.372-1.79.744 0 1.373.82 1.373 1.79v4.388a1.465 1.465 0 102.93 0V26.99c0-2.602-1.93-4.72-4.303-4.72z"/></g><defs><clipPath id="bbclip0_15_116"><path fill="#fff" d="M0 0h50v50H0z"/></clipPath></defs></svg><svg fill="none" viewBox="0 0 33 32" id="telegram" xmlns="http://www.w3.org/2000/svg"><g clip-path="url(#bcclip0_20_46)"><path d="M13.328 20.241l-.526 7.446c.753 0 1.078-.326 1.469-.716l3.526-3.393 7.306 5.387c1.34.753 2.284.357 2.646-1.24l4.796-22.63.001-.002c.425-1.994-.716-2.774-2.022-2.285L2.334 13.676c-1.924.752-1.895 1.832-.327 2.322l7.207 2.257 16.74-10.548c.788-.526 1.505-.235.916.29L13.328 20.241z" fill="#fff"/></g><defs><clipPath id="bcclip0_20_46"><path fill="#fff" transform="translate(.86)" d="M0 0h31.778v32H0z"/></clipPath></defs></svg><svg fill="none" viewBox="0 0 25 32" id="user" xmlns="http://www.w3.org/2000/svg"><path d="M22.678 19.943a12.5 12.5 0 00-4.085-3.779 9.242 9.242 0 003.093-6.902C21.686 4.155 17.531 0 12.424 0S3.162 4.155 3.162 9.262a9.242 9.242 0 003.092 6.902 12.5 12.5 0 00-4.085 3.779A12.322 12.322 0 000 26.936V32h24.848v-5.064c0-2.505-.75-4.923-2.17-6.993zM5.101 9.263c0-4.039 3.285-7.324 7.323-7.324s7.323 3.285 7.323 7.323-3.285 7.323-7.323 7.323S5.1 13.3 5.1 9.262zM1.939 30.06v-3.125c0-4.109 2.38-7.794 6.101-9.516a9.205 9.205 0 004.384 1.104c1.585 0 3.078-.4 4.383-1.104 3.721 1.722 6.101 5.407 6.101 9.516v3.125H1.94z" fill="#fff"/></svg><svg fill="none" viewBox="0 0 93 29" id="visa" xmlns="http://www.w3.org/2000/svg"><path d="M37.109.474l-4.71 27.58h7.533L44.646.475h-7.537zM26.083.505l-7.378 18.81-.787-2.84C16.463 13.051 12.332 8.137 7.483 5.04l6.746 23.001 7.971-.013L34.063.499l-7.98.006z" fill="#fff"/><path d="M15.058 2.479C14.62.799 13.351.298 11.776.238H.096L0 .787c9.089 2.2 15.103 7.501 17.598 13.875L15.058 2.48zM59.913 5.761c2.465-.038 4.251.5 5.638 1.056l.68.319 1.02-5.978C65.759.6 63.42 0 60.502 0c-7.444 0-12.69 3.741-12.731 9.102-.049 3.961 3.737 6.173 6.597 7.494 2.935 1.353 3.92 2.213 3.906 3.422-.023 1.846-2.34 2.693-4.505 2.693-3.016 0-4.619-.416-7.093-1.444l-.97-.441-1.06 6.173c1.763.771 5.016 1.434 8.393 1.47 7.919 0 13.065-3.697 13.119-9.426.033-3.134-1.976-5.525-6.33-7.487-2.635-1.28-4.247-2.131-4.232-3.422 0-1.147 1.368-2.373 4.317-2.373zM86.583.505h-5.82c-1.808 0-3.153.49-3.947 2.289L65.631 28.07h7.91s1.291-3.399 1.584-4.143c.866 0 8.552.012 9.647.012.224.962.918 4.131.918 4.131h6.988L86.583.505zm-9.29 17.777c.62-1.584 3-7.709 3-7.709-.04.076.615-1.595 1.004-2.633l.508 2.378 1.746 7.964h-6.258z" fill="#fff"/></svg><svg fill="none" viewBox="0 0 32 32" id="youtube" xmlns="http://www.w3.org/2000/svg"><g clip-path="url(#bfclip0_20_48)"><path d="M31.24 7.905l.039.262c-.384-1.372-1.42-2.43-2.738-2.816l-.028-.007c-2.478-.677-12.447-.677-12.447-.677s-9.944-.014-12.446.677A4.045 4.045 0 00.862 8.14l-.007.028c-.925 4.868-.932 10.717.041 15.93l-.04-.265c.383 1.372 1.42 2.43 2.737 2.816l.028.007c2.475.678 12.447.678 12.447.678s9.942 0 12.446-.678a4.044 4.044 0 002.76-2.795l.006-.028c.421-2.264.662-4.87.662-7.53l-.001-.295.001-.307a43.3 43.3 0 00-.703-7.795zM12.885 20.868v-9.724l8.297 4.87-8.297 4.854z" fill="#fff"/></g><defs><clipPath id="bfclip0_20_48"><path fill="#fff" transform="translate(.164)" d="M0 0h31.778v32H0z"/></clipPath></defs></svg></svg>