<svg width="24" height="24" viewBox="0 0 24 24" fill="none" xmlns="http://www.w3.org/2000/svg">
<g clip-path="url(#clip0_639_422)">
<path d="M13.4069 12.0066L23.6947 1.7188C24.0917 1.33532 24.1028 0.702587 23.7193 0.305521C23.3358 -0.0915446 22.7031 -0.102555 22.306 0.280924C22.2977 0.288948 22.2895 0.297147 22.2814 0.305521L11.9935 10.5933L1.70569 0.305463C1.30863 -0.0780163 0.675896 -0.0670062 0.292417 0.33006C-0.0816925 0.717404 -0.0816925 1.33145 0.292417 1.7188L10.5802 12.0066L0.292417 22.2944C-0.0977977 22.6847 -0.0977977 23.3174 0.292417 23.7077C0.68269 24.0979 1.31542 24.0979 1.70569 23.7077L11.9935 13.4199L22.2813 23.7077C22.6784 24.0912 23.3111 24.0802 23.6946 23.6831C24.0687 23.2958 24.0687 22.6817 23.6946 22.2944L13.4069 12.0066Z" fill="#31352B"/>
</g>
<defs>
<clipPath id="clip0_639_422">
<rect width="24" height="24" fill="white"/>
</clipPath>
</defs>
</svg>
